<svg width="338" height="40" viewBox="0 0 338 40" fill="none" xmlns="http://www.w3.org/2000/svg">
<path d="M8.8774 19.5513L4.4387 23.9809L0 19.5513L4.4387 15.1217L8.8774 19.5513ZM19.5915 8.85919L27.1679 16.42L31.6066 11.9905L19.5915 0L7.5764 11.9905L12.0151 16.42L19.5915 8.85919ZM34.7443 15.1599L30.3056 19.5895L34.7443 24.0191L39.183 19.5895L34.7443 15.1599ZM19.5915 30.2816L12.0151 22.7208L7.5764 27.1504L19.5915 39.1408L31.6066 27.1504L27.1679 22.7208L19.5915 30.2816ZM19.5915 23.9809L24.0302 19.5513L19.5915 15.1217L15.1528 19.5513L19.5915 23.9809ZM66.2744 24.401V24.3246C66.2744 21.4606 64.7438 20.0095 62.2566 19.0549C63.7872 18.2148 65.0882 16.8401 65.0882 14.4344V14.358C65.0882 10.9976 62.3714 8.821 58.0092 8.821H48.0221V30.2434H58.2388C63.0984 30.2816 66.2744 28.3341 66.2744 24.401ZM60.3816 15.2363C60.3816 16.8401 59.0806 17.4893 56.976 17.4893H52.6139V12.9451H57.2822C59.2719 12.9451 60.3816 13.747 60.3816 15.1599V15.2363ZM61.6061 23.8282C61.6061 25.432 60.3433 26.1575 58.277 26.1575H52.6521V21.4224H58.124C60.5347 21.4224 61.6061 22.3007 61.6061 23.7518V23.8282ZM76.1849 30.2816V8.85919H71.4401V30.2816H76.1849ZM101.593 30.2816V8.85919H96.9243V22.0716L86.8607 8.85919H82.4986V30.2816H87.1668V16.6492L97.5748 30.2816H101.593ZM127.766 30.2816L118.544 8.70644H114.182L104.96 30.2816H109.781L111.733 25.4702H120.801L122.753 30.2816H127.766ZM119.194 21.3079H113.493L116.363 14.358L119.194 21.3079ZM150.303 30.2816V8.85919H145.635V22.0716L135.572 8.85919H131.209V30.2816H135.878V16.6492L146.286 30.2816H150.303ZM174.716 26.8067L171.693 23.79C170.01 25.3174 168.517 26.3103 166.03 26.3103C162.357 26.3103 159.793 23.2554 159.793 19.5895V19.5131C159.793 15.8473 162.395 12.8305 166.03 12.8305C168.173 12.8305 169.857 13.747 171.54 15.2363L174.563 11.7613C172.574 9.81384 170.163 8.43914 166.107 8.43914C159.525 8.43914 154.895 13.4415 154.895 19.5131V19.5895C154.895 25.7375 159.602 30.6253 165.915 30.6253C170.048 30.6635 172.497 29.1742 174.716 26.8067ZM194.844 30.2816V26.0811H183.173V21.5752H193.313V17.3747H183.173V13.0215H194.69V8.821H178.505V30.2434H194.844V30.2816Z" fill="white"/>
<path d="M337.485 8.79639V12.1047H325.479V17.5784H336.12V20.8866H325.479V26.5408H337.636V29.8491H321.75V8.79639H337.485Z" fill="white"/>
<path d="M317.852 29.8491H313.456L308.242 22.5107H303.573V29.8491H299.844V8.79639H309.303C310.515 8.79639 311.607 8.95679 312.577 9.27759C313.567 9.57834 314.396 10.0194 315.063 10.6009C315.75 11.1623 316.276 11.8641 316.64 12.7062C317.003 13.5282 317.185 14.4505 317.185 15.4731C317.185 16.3553 317.054 17.1473 316.791 17.849C316.549 18.5307 316.205 19.1423 315.76 19.6836C315.316 20.2049 314.78 20.6561 314.154 21.037C313.547 21.3979 312.87 21.6786 312.122 21.8791L317.852 29.8491ZM313.396 15.6836C313.396 14.5207 313.012 13.6485 312.244 13.0671C311.476 12.4656 310.394 12.1648 309 12.1648H303.573V19.2325H309.03C310.364 19.2325 311.425 18.9117 312.213 18.2701C313.002 17.6285 313.396 16.7663 313.396 15.6836Z" fill="white"/>
<path d="M286.868 8.64551L296.206 29.8486H292.265L290.112 24.7658H280.077L277.894 29.8486H274.074L283.412 8.64551H286.868ZM288.748 21.4876L285.079 13.0666L281.441 21.4876H288.748Z" fill="white"/>
<path d="M271.539 8.79639V20.7363C271.539 22.3002 271.317 23.6736 270.872 24.8566C270.448 26.0395 269.841 27.032 269.053 27.834C268.265 28.616 267.305 29.2075 266.173 29.6085C265.061 29.9894 263.808 30.1799 262.413 30.1799C261.039 30.1799 259.796 29.9894 258.684 29.6085C257.573 29.2075 256.623 28.616 255.835 27.834C255.046 27.0521 254.44 26.0897 254.016 24.9468C253.591 23.7839 253.379 22.4405 253.379 20.9167V8.79639H257.108V20.7663C257.108 22.7313 257.583 24.225 258.533 25.2475C259.483 26.2701 260.797 26.7814 262.474 26.7814C264.131 26.7814 265.435 26.2902 266.385 25.3077C267.335 24.3252 267.81 22.8616 267.81 20.9167V8.79639H271.539Z" fill="white"/>
<path d="M247.055 25.7885L249.481 27.8336L247.086 30.4802L244.539 28.2246C243.63 28.8461 242.639 29.3374 241.568 29.6983C240.497 30.0391 239.335 30.2095 238.081 30.2095C236.444 30.2095 234.949 29.9288 233.595 29.3674C232.24 28.786 231.078 28.004 230.108 27.0216C229.138 26.0391 228.38 24.8862 227.834 23.5629C227.288 22.2396 227.016 20.8361 227.016 19.3524C227.016 17.8687 227.288 16.4652 227.834 15.1418C228.38 13.8185 229.148 12.6656 230.138 11.6832C231.129 10.6807 232.301 9.8887 233.655 9.30724C235.009 8.72579 236.505 8.43506 238.142 8.43506C239.779 8.43506 241.275 8.72579 242.629 9.30724C243.983 9.86865 245.145 10.6406 246.116 11.623C247.086 12.6055 247.844 13.7584 248.389 15.0817C248.935 16.405 249.208 17.8085 249.208 19.2922C249.208 20.4952 249.016 21.6481 248.632 22.7509C248.268 23.8536 247.743 24.8662 247.055 25.7885ZM241.78 25.7885L238.142 22.7208L240.537 20.014L244.206 23.3223C244.569 22.7609 244.842 22.1494 245.024 21.4877C245.206 20.806 245.297 20.0942 245.297 19.3524C245.297 18.3298 245.115 17.3674 244.751 16.4652C244.408 15.5428 243.913 14.7408 243.266 14.0591C242.639 13.3774 241.881 12.8361 240.992 12.4351C240.103 12.0341 239.132 11.8336 238.081 11.8336C237.03 11.8336 236.06 12.0341 235.171 12.4351C234.302 12.816 233.554 13.3473 232.928 14.0291C232.301 14.6907 231.806 15.4827 231.442 16.405C231.098 17.3073 230.927 18.2697 230.927 19.2922C230.927 20.3148 231.098 21.2872 231.442 22.2095C231.806 23.1118 232.301 23.9038 232.928 24.5855C233.574 25.2672 234.342 25.8085 235.232 26.2095C236.121 26.6105 237.091 26.811 238.142 26.811C238.85 26.811 239.506 26.7208 240.113 26.5404C240.719 26.3599 241.275 26.1093 241.78 25.7885Z" fill="white"/>
<path d="M211.719 14.3001C211.719 14.7212 211.789 15.0821 211.931 15.3828C212.072 15.6836 212.325 15.9643 212.689 16.2249C213.073 16.4856 213.588 16.7262 214.235 16.9468C214.902 17.1673 215.741 17.3979 216.751 17.6385C217.863 17.9192 218.843 18.23 219.692 18.5708C220.561 18.9117 221.279 19.3327 221.845 19.834C222.41 20.3152 222.835 20.8866 223.118 21.5483C223.421 22.1899 223.573 22.9518 223.573 23.834C223.573 24.8365 223.381 25.7287 222.997 26.5107C222.633 27.2926 222.117 27.9543 221.45 28.4957C220.783 29.037 219.985 29.448 219.055 29.7287C218.126 30.0094 217.105 30.1498 215.993 30.1498C214.356 30.1498 212.79 29.8791 211.294 29.3378C209.798 28.7764 208.414 27.9242 207.141 26.7814L209.384 24.1347C210.415 25.0169 211.456 25.6987 212.507 26.1799C213.558 26.641 214.75 26.8716 216.084 26.8716C217.236 26.8716 218.146 26.631 218.813 26.1498C219.5 25.6686 219.844 25.0169 219.844 24.1949C219.844 23.8139 219.773 23.4731 219.631 23.1723C219.51 22.8716 219.268 22.6009 218.904 22.3603C218.56 22.0996 218.075 21.859 217.449 21.6385C216.842 21.4179 216.044 21.1874 215.053 20.9468C213.922 20.6861 212.911 20.3954 212.022 20.0746C211.153 19.7538 210.415 19.3528 209.809 18.8716C209.222 18.3904 208.768 17.8089 208.444 17.1272C208.141 16.4455 207.99 15.6134 207.99 14.631C207.99 13.7086 208.171 12.8766 208.535 12.1347C208.899 11.3728 209.394 10.7212 210.021 10.1798C210.668 9.63846 211.436 9.22744 212.325 8.94673C213.214 8.64598 214.184 8.49561 215.235 8.49561C216.792 8.49561 218.186 8.72618 219.419 9.18734C220.672 9.62844 221.845 10.2801 222.936 11.1422L220.935 13.9392C219.965 13.2375 219.005 12.7061 218.055 12.3452C217.105 11.9643 216.145 11.7738 215.175 11.7738C214.083 11.7738 213.234 12.0244 212.628 12.5257C212.022 13.0069 211.719 13.5984 211.719 14.3001Z" fill="white"/>
</svg>
