<svg width="304" height="43" viewBox="0 0 304 43" fill="none" xmlns="http://www.w3.org/2000/svg">
<g clip-path="url(#clip0_36_151)">
<path d="M0 0.678223V32.8524C3.80612 36.6585 5.94039 38.7928 9.74651 42.5989H41.9206V0.678223H0ZM31.5931 18.5587C31.27 20.7552 30.0517 21.8164 28.4362 22.1899C30.6535 23.346 31.7829 25.1156 30.7068 28.1836C29.3729 31.9957 26.2041 32.3188 21.9889 31.5214L20.9663 35.621L18.4941 35.0044L19.5049 30.9582C18.8646 30.7981 18.2095 30.6292 17.5336 30.4483L16.5199 34.5124L14.0506 33.8958L15.0733 29.7873C14.4953 29.6391 13.9083 29.482 13.3096 29.3338L10.0933 28.5305L11.3205 25.6996C11.3205 25.6996 13.1406 26.1828 13.1169 26.1472C13.8164 26.3191 14.1277 25.8626 14.2492 25.5603L17.0238 14.4354C17.0534 13.9107 16.8726 13.2467 15.8707 12.9977C15.9092 12.971 14.0743 12.5501 14.0743 12.5501L14.7324 9.90895L18.1413 10.7597V10.7715C18.6512 10.899 19.1788 11.0205 19.7183 11.1421L20.7321 7.08104L23.2013 7.6976L22.2083 11.6786C22.8723 11.8298 23.5392 11.9839 24.1884 12.144L25.1725 8.18967L27.6447 8.80624L26.631 12.8673C29.7523 13.9433 32.0348 15.5529 31.5872 18.5527L31.5931 18.5587Z" fill="white"/>
<path d="M21.5427 14.6045L20.3125 19.54C21.7087 19.8868 26.0098 21.3067 26.7064 18.5144C27.4327 15.6005 22.9388 14.9513 21.5427 14.6045Z" fill="white"/>
<path d="M19.6975 22.0298L18.3398 27.4722C20.0147 27.8872 25.1843 29.5472 25.9491 26.4791C26.7465 23.2777 21.3753 22.4507 19.6975 22.0328V22.0298Z" fill="white"/>
<path d="M72.2215 21.3844C72.2215 26.3406 68.2909 29.2486 60.898 29.2486H46.0352V0.572266H60.1125C67.3482 0.572266 70.8846 3.64621 70.8846 8.06889C70.8846 10.8138 69.5477 13.0251 67.1882 14.2968C70.2947 15.444 72.2215 17.9014 72.2215 21.3844ZM53.7393 6.43262V11.9639H59.0868C61.6806 11.9639 63.0174 11.0213 63.0174 9.17753C63.0174 7.33376 61.6806 6.43262 59.0868 6.43262H53.7393ZM64.3573 20.4832C64.3573 18.5179 62.9404 17.5753 60.2696 17.5753H53.7422V23.3912H60.2696C62.9433 23.3912 64.3573 22.4485 64.3573 20.4832Z" fill="white"/>
<path d="M75.6797 0.572266H83.4639V29.2486H75.6797V0.572266Z" fill="white"/>
<path d="M94.2744 7.00472H85.8203V0.572266H110.474V7.00472H102.059V29.2486H94.2744V7.00472Z" fill="white"/>
<path d="M110.984 14.9103C110.984 6.18346 117.393 0 126.123 0C131.195 0 135.285 1.92677 137.959 5.40682L133.006 10.0755C131.275 7.90273 129.152 6.71703 126.517 6.71703C121.997 6.71703 118.849 9.9955 118.849 14.9103C118.849 19.825 121.994 23.1035 126.517 23.1035C129.152 23.1035 131.275 21.9148 133.006 19.745L137.959 24.4137C135.285 27.8967 131.198 29.8205 126.123 29.8205C117.393 29.8205 110.984 23.6341 110.984 14.9103Z" fill="white"/>
<path d="M138.828 14.9103C138.828 6.30796 145.317 0 154.124 0C162.931 0 169.419 6.30796 169.419 14.9103C169.419 23.5126 162.931 29.8205 154.124 29.8205C145.317 29.8205 138.828 23.5126 138.828 14.9103ZM161.555 14.9103C161.555 9.954 158.291 6.71703 154.124 6.71703C149.956 6.71703 146.692 9.954 146.692 14.9103C146.692 19.8665 149.956 23.1035 154.124 23.1035C158.291 23.1035 161.555 19.8665 161.555 14.9103Z" fill="white"/>
<path d="M172.914 0.572266H180.698V29.2486H172.914V0.572266Z" fill="white"/>
<path d="M211.835 0.572266V29.2486H205.426L193.276 13.9678V29.2486H185.648V0.572266H192.057L204.208 15.8531V0.572266H211.835Z" fill="white"/>
<path d="M216.754 0.572266H224.538V29.2486H216.754V0.572266Z" fill="white"/>
<path d="M227.562 26.6695L230.118 20.6876C232.554 22.3683 236.017 23.5155 239.2 23.5155C242.384 23.5155 243.682 22.5729 243.682 21.1797C243.682 16.6325 228.034 19.9495 228.034 9.2989C228.034 4.17665 232.044 0 240.223 0C243.801 0 247.497 0.859637 250.209 2.49888L247.811 8.52226C245.176 7.04902 242.582 6.31092 240.184 6.31092C236.921 6.31092 235.741 7.45809 235.741 8.8928C235.741 13.2769 251.351 9.99847 251.351 20.569C251.351 25.5668 247.34 29.8264 239.162 29.8264C234.641 29.8264 230.156 28.5577 227.562 26.6725V26.6695Z" fill="white"/>
<path d="M259.802 7.00472H251.348V0.572266H276.001V7.00472H267.586V29.2486H259.802V7.00472Z" fill="white"/>
<path d="M278.66 6.08827C278.66 5.45985 279.105 5.05078 279.674 5.05078C280.243 5.05078 280.685 5.45689 280.685 6.08827C280.685 6.71966 280.249 7.13466 279.674 7.13466C279.099 7.13466 278.66 6.69891 278.66 6.08827Z" fill="white"/>
<path d="M281.504 3.81174C281.504 1.84051 282.95 0.444336 284.922 0.444336C286.066 0.444336 286.991 0.880083 287.595 1.66561L286.478 2.72089C286.087 2.22882 285.606 1.96204 285.014 1.96204C283.994 1.96204 283.282 2.70311 283.282 3.81174C283.282 4.92038 283.994 5.66144 285.014 5.66144C285.609 5.66144 286.087 5.3917 286.478 4.90259L287.595 5.95787C286.991 6.7434 286.069 7.17915 284.922 7.17915C282.95 7.17915 281.504 5.78298 281.504 3.81174Z" fill="white"/>
<path d="M288.367 3.81174C288.367 1.86718 289.832 0.444336 291.821 0.444336C293.81 0.444336 295.274 1.87015 295.274 3.81174C295.274 5.75334 293.81 7.17915 291.821 7.17915C289.832 7.17915 288.367 5.75334 288.367 3.81174ZM293.498 3.81174C293.498 2.69125 292.76 1.96204 291.821 1.96204C290.881 1.96204 290.143 2.69421 290.143 3.81174C290.143 4.92927 290.881 5.66144 291.821 5.66144C292.76 5.66144 293.498 4.92927 293.498 3.81174Z" fill="white"/>
<path d="M302.256 7.05163L302.238 3.61901L300.64 6.41431H299.858L298.269 3.7109V7.05163H296.645V0.574707H298.091L300.276 4.31265L302.407 0.574707H303.854L303.871 7.05163H302.256Z" fill="white"/>
<path d="M51.7983 35.5236L51.4159 35.9357C50.8675 35.5651 50.4169 35.4021 49.7499 35.4021C48.333 35.4021 47.1562 36.2647 47.1562 38.5027C47.1562 40.7407 48.2886 41.5944 49.7144 41.5944C50.5592 41.5944 51.0483 41.3365 51.5226 41.0105L51.8931 41.4106C51.404 41.8108 50.7015 42.1399 49.6907 42.1399C47.8083 42.1399 46.4062 40.8771 46.4062 38.5057C46.4062 36.1343 47.8943 34.8804 49.7025 34.8804C50.6659 34.8804 51.2143 35.1175 51.7983 35.5266V35.5236Z" fill="white"/>
<path d="M56.4307 38.871H54.8003V42.022H54.0859V34.9878H56.0631C58.0284 34.9878 58.9681 35.6548 58.9681 36.8968C58.9681 37.9432 58.3011 38.4975 57.148 38.7554L59.386 42.019H58.5412L56.4336 38.868L56.4307 38.871ZM56.158 38.3671C57.4563 38.3671 58.2063 37.9254 58.2063 36.8997C58.2063 35.966 57.5986 35.4917 56.0394 35.4917H54.8003V38.3671H56.158Z" fill="white"/>
<path d="M63.5856 39.2712V42.022H62.8712V39.28L60.2656 34.9878H61.063L63.2536 38.7257L65.4086 34.9878H66.1704L63.5886 39.2682L63.5856 39.2712Z" fill="white"/>
<path d="M73.1835 37.0949C73.1835 38.6748 71.9088 39.2825 70.1362 39.2825H68.9683V42.0244H68.2539V34.9902H70.1718C72.066 34.9902 73.1835 35.6364 73.1835 37.0949ZM72.4335 37.1038C72.4335 35.9121 71.5887 35.4912 70.1599 35.4912H68.9683V38.7756H70.1362C71.4939 38.7756 72.4335 38.3962 72.4335 37.1008V37.1038Z" fill="white"/>
<path d="M79.7098 35.5332H77.3176V42.022H76.6151V35.5332H74.1992V34.9878H79.7958L79.7128 35.5332H79.7098Z" fill="white"/>
<path d="M87.5327 38.5121C87.5327 40.8213 86.2225 42.1374 84.1979 42.1374C82.1734 42.1374 80.875 40.8657 80.875 38.524C80.875 36.1822 82.2445 34.8779 84.1979 34.8779C86.1514 34.8779 87.5327 36.1407 87.5327 38.5121ZM81.6279 38.521C81.6279 40.6256 82.6862 41.6127 84.1979 41.6127C85.7927 41.6127 86.7798 40.6256 86.7798 38.5121C86.7798 36.3986 85.769 35.3996 84.1979 35.3996C82.6269 35.3996 81.6279 36.3867 81.6279 38.521Z" fill="white"/>
<path d="M95.0951 35.5236L94.7127 35.9357C94.1644 35.5651 93.7138 35.4021 93.0468 35.4021C91.6299 35.4021 90.4531 36.2647 90.4531 38.5027C90.4531 40.7407 91.5854 41.5944 93.0112 41.5944C93.8561 41.5944 94.3452 41.3365 94.8195 41.0105L95.19 41.4106C94.7009 41.8108 93.9984 42.1399 92.9875 42.1399C91.1052 42.1399 89.7031 40.8771 89.7031 38.5057C89.7031 36.1343 91.1912 34.8804 92.9994 34.8804C93.9628 34.8804 94.5112 35.1175 95.0951 35.5266V35.5236Z" fill="white"/>
<path d="M102.496 39.825C102.496 41.1796 101.604 42.1341 99.8164 42.1341C98.029 42.1341 97.1367 41.1796 97.1367 39.825V34.9902H97.8511V39.7746C97.8511 40.9128 98.4469 41.6035 99.8164 41.6035C101.186 41.6035 101.77 40.9039 101.77 39.7746V34.9902H102.496V39.825Z" fill="white"/>
<path d="M107.962 38.871H106.332V42.022H105.617V34.9878H107.594C109.56 34.9878 110.499 35.6548 110.499 36.8968C110.499 37.9432 109.832 38.4975 108.679 38.7554L110.917 42.019H110.072L107.965 38.868L107.962 38.871ZM107.689 38.3671C108.988 38.3671 109.738 37.9254 109.738 36.8997C109.738 35.966 109.13 35.4917 107.571 35.4917H106.332V38.3671H107.689Z" fill="white"/>
<path d="M115.583 38.871H113.953V42.022H113.238V34.9878H115.215C117.181 34.9878 118.12 35.6548 118.12 36.8968C118.12 37.9432 117.453 38.4975 116.3 38.7554L118.538 42.019H117.694L115.586 38.868L115.583 38.871ZM115.307 38.3671C116.606 38.3671 117.356 37.9254 117.356 36.8997C117.356 35.966 116.748 35.4917 115.189 35.4917H113.95V38.3671H115.307Z" fill="white"/>
<path d="M124.917 35.5036H121.57V38.121H124.463V38.6338H121.57V41.5092H125.083V42.022H120.855V34.9878H125L124.917 35.5006V35.5036Z" fill="white"/>
<path d="M132.919 42.022H131.979L128.135 35.6666C128.17 36.1498 128.23 36.8256 128.23 38.0884V42.022H127.551V34.9878H128.467L132.335 41.3432C132.311 41.0468 132.24 40.1723 132.24 39.2593V34.9878H132.919V42.022Z" fill="white"/>
<path d="M141.013 35.5236L140.631 35.9357C140.082 35.5651 139.632 35.4021 138.965 35.4021C137.548 35.4021 136.371 36.2647 136.371 38.5027C136.371 40.7407 137.503 41.5944 138.929 41.5944C139.774 41.5944 140.263 41.3365 140.737 41.0105L141.108 41.4106C140.619 41.8108 139.916 42.1399 138.905 42.1399C137.023 42.1399 135.621 40.8771 135.621 38.5057C135.621 36.1343 137.109 34.8804 138.917 34.8804C139.881 34.8804 140.429 35.1175 141.013 35.5266V35.5236Z" fill="white"/>
<path d="M145.273 39.2712V42.022H144.559V39.28L141.953 34.9878H142.751L144.941 38.7257L147.096 34.9878H147.858L145.273 39.2682V39.2712Z" fill="white"/>
<path d="M159.224 42.022H158.284L154.439 35.6666C154.475 36.1498 154.534 36.8256 154.534 38.0884V42.022H153.855V34.9878H154.771L158.64 41.3432C158.616 41.0468 158.545 40.1723 158.545 39.2593V34.9878H159.224V42.022Z" fill="white"/>
<path d="M166.522 35.5036H163.175V38.121H166.068V38.6338H163.175V41.5092H166.688V42.022H162.461V34.9878H166.605L166.522 35.5006V35.5036Z" fill="white"/>
<path d="M175.325 42.022H174.433L172.649 35.6755L170.864 42.022H169.996L168.199 34.9878H168.925L170.473 41.4469L172.257 34.9878H173.055L174.875 41.4469L176.434 34.9878H177.113L175.328 42.022H175.325Z" fill="white"/>
<path d="M183.478 35.6575L183.06 36.0488C182.452 35.5982 181.904 35.4026 181.154 35.4026C180.155 35.4026 179.464 35.8532 179.464 36.5942C179.464 37.3353 179.906 37.6406 181.37 38.02C182.835 38.4113 183.727 38.8619 183.727 40.1039C183.727 41.346 182.666 42.1374 181.024 42.1374C179.906 42.1374 179.082 41.7995 178.418 41.2541L178.824 40.8628C179.432 41.3134 180.063 41.6127 181.015 41.6127C182.159 41.6127 183.004 41.0673 183.004 40.1247C183.004 39.271 182.515 38.9242 181.062 38.5329C179.444 38.1001 178.741 37.6199 178.741 36.6031C178.741 35.5864 179.704 34.8779 181.133 34.8779C182.194 34.8779 182.835 35.1655 183.478 35.6575Z" fill="white"/>
<path d="M194.441 36.3956C194.441 37.2286 193.75 37.7414 192.621 38.2839L195.061 40.2551C195.393 39.6711 195.656 39.0546 195.846 38.3046L196.501 38.4677C196.24 39.3303 195.905 40.018 195.49 40.6138L196.967 41.7847L196.454 42.1345L195.12 41.0555C194.488 41.7017 193.691 42.1345 192.452 42.1345C191.035 42.1345 189.953 41.3963 189.953 40.267C189.953 39.3421 190.608 38.7582 191.666 38.2246C190.893 37.5873 190.463 37.1574 190.463 36.4371C190.463 35.5538 191.237 34.8779 192.464 34.8779C193.691 34.8779 194.441 35.5152 194.441 36.3986V36.3956ZM190.668 40.2462C190.668 41.0881 191.441 41.6424 192.511 41.6424C193.498 41.6424 194.142 41.2926 194.69 40.7175L192.084 38.5507C191.157 39.0338 190.668 39.5378 190.668 40.2432V40.2462ZM191.157 36.4253C191.157 36.9381 191.382 37.2671 192.215 37.9548C193.238 37.4717 193.762 37.03 193.762 36.4134C193.762 35.7257 193.202 35.3344 192.464 35.3344C191.643 35.3344 191.154 35.8265 191.154 36.4223L191.157 36.4253Z" fill="white"/>
<path d="M207.682 35.5332H205.29V42.022H204.588V35.5332H202.172V34.9878H207.768L207.685 35.5332H207.682Z" fill="white"/>
<path d="M213.862 35.5036H210.515V38.121H213.408V38.6338H210.515V41.5092H214.028V42.022H209.801V34.9878H213.945L213.862 35.5006V35.5036Z" fill="white"/>
<path d="M221.22 35.5236L220.838 35.9357C220.289 35.5651 219.839 35.4021 219.172 35.4021C217.755 35.4021 216.578 36.2647 216.578 38.5027C216.578 40.7407 217.71 41.5944 219.136 41.5944C219.981 41.5944 220.47 41.3365 220.944 41.0105L221.315 41.4106C220.826 41.8108 220.123 42.1399 219.113 42.1399C217.23 42.1399 215.828 40.8771 215.828 38.5057C215.828 36.1343 217.316 34.8804 219.124 34.8804C220.088 34.8804 220.636 35.1175 221.22 35.5266V35.5236Z" fill="white"/>
<path d="M228.13 38.5834H224.226V42.022H223.512V34.9878H224.226V38.0588H228.13V34.9878H228.844V42.022H228.13V38.5834Z" fill="white"/>
<path d="M237.454 42.022H236.515L232.67 35.6666C232.705 36.1498 232.765 36.8256 232.765 38.0884V42.022H232.086V34.9878H233.002L236.87 41.3432C236.847 41.0468 236.775 40.1723 236.775 39.2593V34.9878H237.454V42.022Z" fill="white"/>
<path d="M246.806 38.5121C246.806 40.8213 245.496 42.1374 243.471 42.1374C241.447 42.1374 240.148 40.8657 240.148 38.524C240.148 36.1822 241.518 34.8779 243.471 34.8779C245.425 34.8779 246.806 36.1407 246.806 38.5121ZM240.901 38.521C240.901 40.6256 241.96 41.6127 243.471 41.6127C245.066 41.6127 246.053 40.6256 246.053 38.5121C246.053 36.3986 245.042 35.3996 243.471 35.3996C241.9 35.3996 240.901 36.3867 240.901 38.521Z" fill="white"/>
<path d="M250.227 41.4677H253.633L253.538 42.022H249.516V34.9878H250.23V41.4677H250.227Z" fill="white"/>
<path d="M261.337 38.5121C261.337 40.8213 260.027 42.1374 258.003 42.1374C255.978 42.1374 254.68 40.8657 254.68 38.524C254.68 36.1822 256.049 34.8779 258.003 34.8779C259.956 34.8779 261.337 36.1407 261.337 38.5121ZM255.433 38.521C255.433 40.6256 256.491 41.6127 258.003 41.6127C259.597 41.6127 260.585 40.6256 260.585 38.5121C260.585 36.3986 259.574 35.3996 258.003 35.3996C256.432 35.3996 255.433 36.3867 255.433 38.521Z" fill="white"/>
<path d="M269.152 35.5746L268.722 35.9658C268.15 35.5746 267.64 35.4026 266.914 35.4026C265.604 35.4026 264.258 36.2445 264.258 38.4825C264.258 40.7205 265.269 41.6128 266.878 41.6128C267.545 41.6128 268.082 41.4883 268.592 41.2422V38.7463H266.997L266.914 38.2335H269.294V41.5594C268.568 41.9181 267.759 42.1345 266.878 42.1345C264.854 42.1345 263.508 40.9132 263.508 38.4795C263.508 36.0459 265.162 34.875 266.914 34.875C267.865 34.875 268.485 35.1121 269.152 35.5746Z" fill="white"/>
<path d="M273.882 39.2712V42.022H273.168V39.28L270.562 34.9878H271.36L273.55 38.7257L275.705 34.9878H276.467L273.882 39.2682V39.2712Z" fill="white"/>
</g>
<defs>
<clipPath id="clip0_36_151">
<rect width="303.873" height="42.5995" fill="white"/>
</clipPath>
</defs>
</svg>
