<svg width="269" height="41" viewBox="0 0 269 41" fill="none" xmlns="http://www.w3.org/2000/svg">
<g clip-path="url(#clip0_36_111)">
<path d="M38.5928 7.0309L20.7567 0.151746C20.0904 -0.0505822 19.8855 -0.0505822 19.2191 0.151746L1.38302 7.0309C0.665478 7.3344 0.511719 7.58731 0.511719 8.29546V31.8667C0.511719 32.6254 0.665478 32.7772 1.38302 33.1312L19.2191 40.3139C19.5779 40.4656 19.7829 40.5163 20.0392 40.5163C20.2442 40.5163 20.5004 40.4656 20.8079 40.3139L38.644 33.1312C39.3616 32.8783 39.5154 32.6254 39.5154 31.8667V8.29546C39.4641 7.58731 39.3103 7.3344 38.5928 7.0309ZM34.9539 31.9678L19.9879 37.886L5.022 31.9678L19.9879 26.6568L34.9539 31.9678ZM5.07325 8.1943L19.9879 2.57969L34.9026 8.1943L19.9879 13.556L5.07325 8.1943ZM25.677 24.4817C25.9845 24.3805 26.1896 24.0771 26.1896 23.7735V16.4392C26.1896 16.1356 25.9845 15.8322 25.677 15.731L23.6781 14.9218L36.9015 10.1164V30.0963L23.6781 25.2911L25.677 24.4817ZM23.5756 17.7037V22.509L19.9879 23.9253L16.4514 22.509V17.7037L19.9879 16.2874L23.5756 17.7037ZM14.3501 15.731C14.0426 15.8322 13.8375 16.1356 13.8375 16.4897V23.7735C13.8375 24.0771 14.0426 24.3805 14.3501 24.4817L16.349 25.2911L3.12562 30.0963V10.1164L16.349 14.9723L14.3501 15.731Z" fill="#FEFEFE"/>
<path d="M59.2043 32.8881H65.4214V12.5085H74.4019V7.62891H50.1875V12.5085H59.2043V32.8881Z" fill="#FEFEFE"/>
<path d="M76.3047 32.8881H82.5218V22.0166H94.302V32.8881H100.519V7.62891H94.302V17.1011H82.5218V7.62891H76.3047V32.8881Z" fill="#FEFEFE"/>
<path d="M125.626 17.3164H111.339V12.5444H126.39V7.62891H105.121V32.8881H126.39V27.9726H111.339V22.2319H125.626V17.3164Z" fill="#FEFEFE"/>
<path d="M137.855 32.8881H151.781C158.07 32.8881 161.744 30.1253 161.744 25.3533C161.744 22.1601 159.452 20.2585 156.98 19.505C158.98 18.7874 160.797 17.0652 160.797 14.1232C160.797 10.571 158.144 7.62891 152.035 7.62891H137.855V32.8881ZM143.964 17.4957V12.2214H150.763C152.908 12.2214 154.399 12.9749 154.399 14.8765C154.399 16.4194 153.489 17.4957 150.727 17.4957H143.964ZM143.964 22.0884H151.091C153.817 22.0884 155.199 23.1289 155.199 25.1381C155.199 27.6497 153.381 28.3314 150.982 28.3314H143.964V22.0884Z" fill="#FEFEFE"/>
<path d="M164.609 32.8881H184.315V27.9726H170.826V7.62891H164.609V32.8881Z" fill="#FEFEFE"/>
<path d="M198.964 7.09082C190.274 7.09082 185.039 13.2262 185.039 20.1868C185.039 27.578 189.983 33.4264 198.673 33.4264C207.98 33.4264 212.707 27.1834 212.707 20.151C212.707 13.2621 207.908 7.09082 198.964 7.09082ZM198.782 11.8627C203.945 11.8627 206.163 15.7736 206.163 20.2228C206.163 24.3489 204.163 28.6544 199.036 28.6544C194.02 28.6544 191.583 24.887 191.583 20.1151C191.583 15.8454 193.8 11.8627 198.782 11.8627Z" fill="#FEFEFE"/>
<path d="M234.489 24.8512C233.471 27.291 231.871 28.6903 228.235 28.6903C223.182 28.6903 220.927 24.7076 220.927 20.0433C220.927 15.4508 223.399 11.8269 228.198 11.8269C232.562 11.8269 233.943 14.1591 234.489 15.5943H240.779C240.015 11.3964 236.126 7.09082 228.272 7.09082C219.219 7.09082 214.383 13.3697 214.383 20.2945C214.383 27.1834 218.782 33.4264 227.944 33.4264C235.98 33.4264 239.543 29.3002 240.707 24.8512H234.489Z" fill="#FEFEFE"/>
<path d="M242.984 32.8881H249.202V24.5281L252.438 21.8731L261.854 32.8881H269.562L256.873 18.5004L268.908 7.62891H261.31C256.437 12.1139 252.874 15.3071 249.202 18.6798V7.62891H242.984V32.8881Z" fill="#FEFEFE"/>
</g>
<defs>
<clipPath id="clip0_36_111">
<rect width="268.332" height="40.7865" fill="white"/>
</clipPath>
</defs>
</svg>
