<svg width="1440" height="993" viewBox="0 0 1440 993" fill="none" xmlns="http://www.w3.org/2000/svg">
<g filter="url(#filter0_f_84_22450)">
<path d="M1117.42 283.401C1174.62 283.401 1221 386.286 1221 513.201C1221 640.116 1174.62 743 1117.42 743C1081.02 743 1049.01 701.355 1030.54 638.373C1026.95 626.14 1009.18 626.14 1005.59 638.373C987.117 701.355 955.106 743 918.71 743C882.315 743 850.304 701.356 831.83 638.373C828.242 626.14 810.469 626.14 806.88 638.373C788.407 701.356 756.396 743 720 743C683.604 743 651.593 701.355 633.119 638.373C629.531 626.14 611.762 626.14 608.174 638.373C589.7 701.355 557.689 743 521.293 743C484.897 743 452.886 701.356 434.412 638.373C430.824 626.14 413.051 626.14 409.463 638.373C390.989 701.356 358.978 743 322.582 743C265.375 743 219 640.116 219 513.201C219 386.286 265.375 283.402 322.582 283.402C358.978 283.402 390.989 417.521 409.463 480.504C413.051 492.736 430.824 492.736 434.412 480.503C452.886 417.521 484.897 283.401 521.293 283.401C557.689 283.401 589.7 417.521 608.174 480.504C611.762 492.736 629.531 492.736 633.119 480.504C651.593 417.521 683.604 350.204 720 350.204C756.396 350.204 788.407 417.521 806.881 480.503C810.469 492.736 828.242 492.736 831.83 480.503C850.304 417.521 882.314 250 918.71 250C955.106 250 987.117 417.521 1005.59 480.504C1009.18 492.736 1026.95 492.736 1030.54 480.504C1049.01 417.521 1081.02 283.401 1117.42 283.401Z" fill="url(#paint0_linear_84_22450)"/>
</g>
<defs>
<filter id="filter0_f_84_22450" x="-31" y="0" width="1502" height="993" filterUnits="userSpaceOnUse" color-interpolation-filters="sRGB">
<feFlood flood-opacity="0" result="BackgroundImageFix"/>
<feBlend mode="normal" in="SourceGraphic" in2="BackgroundImageFix" result="shape"/>
<feGaussianBlur stdDeviation="125" result="effect1_foregroundBlur_84_22450"/>
</filter>
<linearGradient id="paint0_linear_84_22450" x1="219" y1="513.201" x2="1221" y2="513.201" gradientUnits="userSpaceOnUse">
<stop stop-color="#009DFF"/>
<stop offset="1" stop-color="#009DFF"/>
</linearGradient>
</defs>
</svg>
