<svg width="287" height="41" viewBox="0 0 287 41" fill="none" xmlns="http://www.w3.org/2000/svg">
<path d="M0 9.85889H8.69399L13.7673 22.7982L18.8854 9.85889H27.3559L14.6166 40.5199H6.10144L9.58797 32.3854L0 9.85889Z" fill="white"/>
<path d="M36.1803 9.34521C29.6542 9.34521 25.5195 15.2003 25.5195 21.0331C25.5195 27.6033 30.0565 32.8103 36.0462 32.8103C40.5385 32.8103 42.2147 30.0839 42.2147 30.0839V32.2069H49.7912V9.85921H42.2147V11.8929C42.2147 11.8929 40.3373 9.34521 36.1803 9.34521ZM37.7895 16.5188C40.8066 16.5188 42.3488 18.91 42.3488 21.0554C42.3488 23.3796 40.6725 25.6367 37.7895 25.6367C35.3757 25.6367 33.2078 23.6701 33.2078 21.1448C33.2078 18.5972 34.9511 16.5188 37.7895 16.5188Z" fill="white"/>
<path d="M52.4102 32.2064V0.00341797H60.3443V11.9818C60.3443 11.9818 62.2216 9.3671 66.1775 9.3671C71.005 9.3671 73.8211 12.9651 73.8211 18.1051V32.2288H65.954V20.027C65.954 18.2838 65.1271 16.6078 63.2497 16.6078C61.35 16.6078 60.3443 18.3062 60.3443 20.027V32.2064H52.4102Z" fill="white"/>
<path d="M87.3605 9.34521C79.8733 9.34521 75.4258 15.0439 75.4258 21.1224C75.4258 28.0502 80.812 32.7879 87.3828 32.7879C93.7524 32.7879 99.3175 28.2514 99.3175 21.2342C99.3175 13.5466 93.4842 9.34521 87.3605 9.34521ZM87.4275 16.5859C90.0648 16.5859 91.8974 18.7759 91.8974 21.1224C91.8974 23.1337 90.1989 25.592 87.4275 25.592C84.902 25.592 82.9799 23.5583 82.9799 21.1001C82.9799 18.7536 84.5668 16.5859 87.4275 16.5859Z" fill="white"/>
<path d="M112.532 9.34521C105.045 9.34521 100.598 15.0439 100.598 21.1224C100.598 28.0502 105.984 32.7879 112.555 32.7879C118.924 32.7879 124.489 28.2514 124.489 21.2342C124.512 13.5466 118.678 9.34521 112.532 9.34521ZM112.599 16.5859C115.237 16.5859 117.069 18.7759 117.069 21.1224C117.069 23.1337 115.371 25.592 112.599 25.592C110.074 25.592 108.152 23.5583 108.152 21.1001C108.174 18.7536 109.761 16.5859 112.599 16.5859Z" fill="white"/>
<path d="M130.767 22.1499C133.672 22.1499 136.041 24.4964 136.041 27.424C136.041 30.3292 133.694 32.698 130.767 32.698C127.861 32.698 125.492 30.3515 125.492 27.424C125.492 24.4964 127.861 22.1499 130.767 22.1499Z" fill="white"/>
<path d="M137.761 20.2057H128.285L136.689 0.00341797H146.142L137.761 20.2057Z" fill="white"/>
<path d="M204.707 31.8903C204.484 31.8457 204.238 31.7786 204.015 31.7116C202.674 31.3093 201.444 30.5271 200.461 29.5215C198.606 27.689 197.556 25.1637 197.265 22.6161C196.952 19.9567 197.421 17.1856 198.762 14.8614C198.807 14.772 198.874 14.6826 198.919 14.5932C201.221 10.8165 205.579 9.051 209.624 10.2578C210.988 10.66 212.15 11.3975 213.245 12.6713C213.245 11.9785 213.267 11.4869 213.245 10.9953C213.223 10.593 213.379 10.4813 213.781 10.4813C215.972 10.5036 218.162 10.5036 220.33 10.4813C220.777 10.4813 220.889 10.6377 220.889 11.0623C220.889 17.7219 220.866 24.3815 220.889 31.0411C220.889 31.5104 220.754 31.6445 220.285 31.6445C218.14 31.6222 216.016 31.6222 213.871 31.6445C213.357 31.6445 213.2 31.4881 213.245 30.9964C213.29 30.5718 213.245 30.1472 213.245 29.7226C212.999 29.5885 212.932 29.7897 212.843 29.8791C210.809 32.0691 207.524 32.5384 204.707 31.8903ZM213.424 21.0964C213.446 18.6829 211.569 16.8057 209.155 16.7833C206.719 16.761 204.774 18.5935 204.752 20.9847C204.707 23.3535 206.63 25.2754 209.043 25.3201C211.457 25.3425 213.401 23.4876 213.424 21.0964Z" fill="white"/>
<path d="M273.029 31.8905C267.598 30.6838 264.514 26.2589 264.849 20.4038C265.117 16.0013 267.218 12.6715 271.308 10.9061C275.398 9.14059 279.466 9.43111 283.042 12.2469C286.349 14.8393 287.199 18.5266 286.975 22.5716C286.953 23.1526 286.528 23.0185 286.215 23.0185C281.924 23.0185 277.633 23.0185 273.319 23.0185C272.269 23.0185 272.18 23.1526 272.627 24.1359C273.655 26.4154 277.186 26.9741 279.063 25.0968C279.577 24.5828 279.957 24.5828 280.561 24.8287C282.192 25.4991 283.824 26.1025 285.455 26.7282C286.282 27.0411 286.282 27.0411 285.746 27.7786C284.248 29.8793 282.215 31.1754 279.734 31.8012C278.214 32.2705 274.236 32.1587 273.029 31.8905ZM275.934 18.5937C276.851 18.5937 277.767 18.5937 278.661 18.5937C279.555 18.5937 279.644 18.4819 279.264 17.6551C278.683 16.3589 277.588 15.8002 276.225 15.7332C274.772 15.6661 273.521 16.0907 272.738 17.4316C272.627 17.6327 272.56 17.8562 272.47 18.0573C272.314 18.4372 272.448 18.616 272.873 18.5937C273.901 18.5937 274.929 18.5937 275.934 18.5937Z" fill="white"/>
<path d="M255.222 31.8231C254.887 31.7561 254.552 31.6667 254.217 31.5549C252.742 31.0633 251.334 30.2811 250.261 29.1414C246.864 25.6105 246.216 21.4091 247.78 16.9172C249.3 12.5594 252.697 10.414 257.189 9.92237C259.089 9.72124 260.944 9.96707 262.732 10.6598C263.224 10.8386 263.447 11.0845 263.425 11.6431C263.38 13.498 263.38 15.3529 263.425 17.2077C263.447 17.9005 263.268 17.9005 262.732 17.61C261.369 16.8725 259.916 16.6267 258.374 16.9172C256.139 17.3642 254.798 19.0402 254.887 21.2303C254.954 23.2863 256.474 24.8506 258.664 25.1635C260.162 25.3646 261.57 25.0965 262.844 24.3143C263.402 23.9791 263.447 24.1579 263.447 24.6942C263.425 26.5938 263.425 28.5157 263.447 30.4152C263.447 31.175 262.844 31.3091 262.218 31.4656C259.938 32.0242 257.502 32.2701 255.222 31.8231Z" fill="white"/>
<path d="M231.796 12.6265C231.952 12.5594 231.997 12.5594 232.02 12.5371C234.143 9.83302 236.959 9.36371 240.043 10.3023C243.127 11.2409 244.379 13.6768 244.781 16.6938C244.848 17.1631 244.871 17.6547 244.871 18.1464C244.871 22.4148 244.871 26.6832 244.893 30.9516C244.893 31.4656 244.781 31.6667 244.222 31.6444C242.099 31.622 239.954 31.5997 237.808 31.6444C237.205 31.6444 237.115 31.4432 237.115 30.9069C237.138 27.3983 237.115 23.8897 237.138 20.3811C237.138 19.8671 237.115 19.3755 236.981 18.8615C236.668 17.6994 235.908 17.029 234.791 16.9396C233.539 16.8502 232.601 17.3865 232.109 18.5263C231.818 19.1967 231.774 19.8895 231.774 20.627C231.774 24.0238 231.751 27.443 231.796 30.8399C231.796 31.4656 231.662 31.6667 231.014 31.6444C228.913 31.5997 226.79 31.622 224.689 31.6444C224.22 31.6444 224.018 31.5326 224.041 31.0186C224.063 24.3814 224.063 17.7664 224.041 11.1292C224.041 10.6152 224.197 10.4811 224.689 10.4811C226.857 10.5034 229.002 10.5034 231.17 10.4811C231.662 10.4811 231.863 10.6152 231.818 11.1292C231.774 11.5985 231.796 12.0901 231.796 12.6265Z" fill="white"/>
<path d="M181.956 12.8054C184.28 9.87782 187.141 9.31912 190.314 10.3248C193.175 11.2187 194.449 13.5205 194.918 16.3363C195.03 16.962 195.052 17.6101 195.052 18.2359C195.075 22.4596 195.052 26.6833 195.075 30.8846C195.075 31.4433 194.963 31.6221 194.36 31.6221C192.281 31.5774 190.18 31.5774 188.102 31.6221C187.476 31.6221 187.275 31.488 187.297 30.84C187.32 27.3537 187.32 23.8675 187.32 20.4036C187.32 19.8672 187.297 19.3309 187.163 18.8169C186.85 17.6995 186.09 17.0291 185.018 16.9397C183.788 16.828 182.85 17.3419 182.358 18.437C182.045 19.0851 181.978 19.8002 181.978 20.5153C181.978 23.9792 181.956 27.4208 182 30.8846C182 31.5104 181.822 31.6445 181.24 31.6445C179.14 31.6221 177.016 31.6221 174.915 31.6445C174.379 31.6445 174.223 31.5104 174.223 30.974C174.245 24.3591 174.245 17.7666 174.223 11.1516C174.223 10.66 174.357 10.4812 174.848 10.5036C177.016 10.5259 179.162 10.5259 181.33 10.5036C181.889 10.5036 182.023 10.7047 182 11.2187C181.911 11.6433 181.956 12.1126 181.956 12.8054Z" fill="white"/>
<path d="M155.407 24.1804C155.407 26.4152 155.384 28.6499 155.429 30.8847C155.429 31.5105 155.228 31.6445 154.647 31.6222C152.568 31.5998 150.467 31.5775 148.389 31.6222C147.808 31.6222 147.674 31.4434 147.674 30.8847C147.696 26.4375 147.674 21.9903 147.696 17.5431C147.696 16.8504 147.517 16.6269 146.802 16.6492C146.176 16.6939 145.372 16.9398 144.969 16.5151C144.589 16.1129 144.858 15.3084 144.858 14.6826C144.835 13.4982 144.88 12.2914 144.835 11.107C144.813 10.6154 144.947 10.4142 145.461 10.4589C145.997 10.5036 146.534 10.4366 147.07 10.4813C147.539 10.5036 147.674 10.3472 147.674 9.87788C147.651 8.64876 147.808 7.44198 148.165 6.25756C149.26 2.63723 152.143 0.447155 156.166 0.20133C157.552 0.111939 158.915 0.20133 160.234 0.625936C160.681 0.760022 160.905 0.961152 160.882 1.47515C160.837 3.17357 160.86 4.872 160.882 6.59277C160.882 7.08442 160.837 7.28555 160.256 7.06207C159.362 6.72686 158.424 6.65981 157.485 6.90564C156.077 7.28555 155.161 8.7158 155.362 10.1237C155.429 10.5707 155.719 10.4813 155.988 10.4813C157.262 10.4813 158.535 10.5036 159.809 10.4813C160.368 10.4589 160.614 10.5707 160.592 11.2187C160.547 12.7831 160.547 14.3698 160.592 15.9341C160.614 16.5152 160.48 16.7386 159.854 16.7163C158.603 16.6716 157.351 16.7386 156.122 16.6939C155.474 16.6716 155.384 16.9174 155.384 17.4761C155.407 19.6885 155.407 21.9233 155.407 24.1804Z" fill="white"/>
<path d="M170.986 21.0741C170.986 24.3593 170.963 27.622 171.008 30.9071C171.008 31.4658 170.874 31.6446 170.293 31.6446C168.17 31.5999 166.024 31.6223 163.901 31.6446C163.432 31.6446 163.23 31.5329 163.23 31.0189C163.253 24.3816 163.253 17.7667 163.23 11.1294C163.23 10.6378 163.365 10.459 163.879 10.4813C166.047 10.5037 168.192 10.5037 170.36 10.4813C170.941 10.4813 171.008 10.7048 171.008 11.1965C170.986 14.4592 170.986 17.7667 170.986 21.0741Z" fill="white"/>
<path d="M171.451 4.29076C171.451 6.63727 169.484 8.55917 167.093 8.53682C164.746 8.51447 162.802 6.59257 162.802 4.29076C162.757 1.94425 164.724 0 167.115 0C169.529 0 171.451 1.9219 171.451 4.29076Z" fill="white"/>
</svg>
