<svg width="48" height="48" viewBox="0 0 48 48" fill="none" xmlns="http://www.w3.org/2000/svg">
<path d="M27.75 12.75H20.25C16.9425 12.75 14.25 15.4425 14.25 18.75C14.25 22.0575 16.9425 24.75 20.25 24.75H27.75C31.0575 24.75 33.75 22.0575 33.75 18.75C33.75 15.4425 31.0575 12.75 27.75 12.75ZM27.75 23.25H20.25C17.7675 23.25 15.75 21.2325 15.75 18.75C15.75 16.2675 17.7675 14.25 20.25 14.25H27.75C30.2325 14.25 32.25 16.2675 32.25 18.75C32.25 21.2325 30.2325 23.25 27.75 23.25Z" fill="#2BB9F3"/>
<path d="M19.5 16.5C18.2625 16.5 17.25 17.5125 17.25 18.75C17.25 19.9875 18.2625 21 19.5 21C20.7375 21 21.75 19.9875 21.75 18.75C21.75 17.5125 20.7375 16.5 19.5 16.5ZM19.5 19.5C19.0875 19.5 18.75 19.1625 18.75 18.75C18.75 18.3375 19.0875 18 19.5 18C19.9125 18 20.25 18.3375 20.25 18.75C20.25 19.1625 19.9125 19.5 19.5 19.5Z" fill="#2BB9F3"/>
<path d="M28.5 16.5C27.2625 16.5 26.25 17.5125 26.25 18.75C26.25 19.9875 27.2625 21 28.5 21C29.7375 21 30.75 19.9875 30.75 18.75C30.75 17.5125 29.7375 16.5 28.5 16.5ZM28.5 19.5C28.0875 19.5 27.75 19.1625 27.75 18.75C27.75 18.3375 28.0875 18 28.5 18C28.9125 18 29.25 18.3375 29.25 18.75C29.25 19.1625 28.9125 19.5 28.5 19.5Z" fill="#2BB9F3"/>
<path d="M39 15.1347V6.60719C39.87 6.29969 40.5 5.47469 40.5 4.49219C40.5 3.25469 39.4875 2.24219 38.25 2.24219C37.0125 2.24219 36 3.25469 36 4.49219C36 5.46719 36.63 6.29219 37.5 6.60719V14.9922H36.75V14.3247C36.75 11.3472 34.86 8.75969 32.055 7.88969C27.195 6.38969 20.8125 6.38969 15.945 7.88969C13.1325 8.75969 11.25 11.3397 11.25 14.3247V14.9922H10.5V6.60719C11.37 6.29969 12 5.47469 12 4.49219C12 3.25469 10.9875 2.24219 9.75 2.24219C8.5125 2.24219 7.5 3.25469 7.5 4.49219C7.5 5.46719 8.13 6.29219 9 6.60719V15.1347C8.13 15.4422 7.5 16.2672 7.5 17.2497V18.7497C7.5 19.9872 8.5125 20.9997 9.75 20.9997H11.25V21.6672C11.25 24.6447 13.14 27.2322 15.945 28.1022C16.215 28.1847 16.5 28.2447 16.7775 28.3197C16.4025 28.5522 16.065 28.8522 15.7875 29.2122C15.075 30.1272 14.8275 31.2897 15.1125 32.4072L16.4475 37.6797V37.6947L16.59 38.2422L16.635 38.3997C17.055 40.0572 18.5325 41.2122 20.25 41.2347V41.9922C20.25 44.0622 21.93 45.7422 24 45.7422C26.07 45.7422 27.75 44.0622 27.75 41.9922V41.2347C29.4675 41.2122 30.945 40.0572 31.365 38.4072L31.41 38.2422L31.5525 37.6872L32.8875 32.3997C33.1725 31.2822 32.925 30.1197 32.2125 29.2047C31.935 28.8447 31.5975 28.5447 31.2225 28.3122C31.5 28.2372 31.785 28.1772 32.055 28.0947C34.8675 27.2247 36.75 24.6447 36.75 21.6597V20.9922H38.25C39.4875 20.9922 40.5 19.9797 40.5 18.7422V17.2422C40.5 16.2672 39.87 15.4422 39 15.1272V15.1347ZM38.25 3.74969C38.6625 3.74969 39 4.08719 39 4.49969C39 4.91219 38.6625 5.24969 38.25 5.24969C37.8375 5.24969 37.5 4.91219 37.5 4.49969C37.5 4.08719 37.8375 3.74969 38.25 3.74969ZM9.75 3.74969C10.1625 3.74969 10.5 4.08719 10.5 4.49969C10.5 4.91219 10.1625 5.24969 9.75 5.24969C9.3375 5.24969 9 4.91219 9 4.49969C9 4.08719 9.3375 3.74969 9.75 3.74969ZM9.75 19.4997C9.3375 19.4997 9 19.1622 9 18.7497V17.2497C9 16.8372 9.3375 16.4997 9.75 16.4997H11.25V19.4997H9.75ZM23.25 29.2497H24.75V29.9997C24.75 30.4122 24.4125 30.7497 24 30.7497C23.5875 30.7497 23.25 30.4122 23.25 29.9997V29.2497ZM26.25 41.9997C26.25 43.2372 25.2375 44.2497 24 44.2497C22.7625 44.2497 21.75 43.2372 21.75 41.9997V41.2497H26.25V41.9997ZM27.6975 39.7497H20.3025C19.3275 39.7497 18.4725 39.1422 18.15 38.2497H29.8425C29.52 39.1422 28.665 39.7497 27.69 39.7497H27.6975ZM31.4325 32.0397L30.24 36.7497H17.76L16.5675 32.0397C16.395 31.3722 16.545 30.6822 16.9725 30.1347C17.4075 29.5722 18.075 29.2497 18.7875 29.2497H21.75V29.9997C21.75 31.2372 22.7625 32.2497 24 32.2497C25.2375 32.2497 26.25 31.2372 26.25 29.9997V29.2497H29.2125C29.9325 29.2497 30.5925 29.5722 31.0275 30.1347C31.455 30.6822 31.5975 31.3797 31.4325 32.0397ZM35.25 21.6672C35.25 23.9472 33.75 26.0097 31.6125 26.6697C27.0375 28.0797 20.97 28.0797 16.3875 26.6697C14.2425 26.0097 12.75 23.9547 12.75 21.6672V14.3247C12.75 12.0447 14.25 9.98219 16.3875 9.32219C18.675 8.61719 21.3075 8.24219 24 8.24219C26.6925 8.24219 29.325 8.61719 31.6125 9.32219C33.7575 9.98219 35.25 12.0372 35.25 14.3247V21.6672ZM39 18.7497C39 19.1622 38.6625 19.4997 38.25 19.4997H36.75V16.4997H38.25C38.6625 16.4997 39 16.8372 39 17.2497V18.7497Z" fill="#2BB9F3"/>
</svg>
