<svg width="48" height="48" viewBox="0 0 48 48" fill="none" xmlns="http://www.w3.org/2000/svg">
<path d="M47.25 39H44.25V12.75C44.25 11.5095 43.2405 10.5 42 10.5H37.9778C36.9578 6.207 33.1005 3 28.5 3C23.8995 3 20.0423 6.207 19.0223 10.5H6C4.7595 10.5 3.75 11.5095 3.75 12.75V39H0.75C0.336 39 0 39.3353 0 39.75V42.75C0 43.9905 1.0095 45 2.25 45H45.75C46.9905 45 48 43.9905 48 42.75V39.75C48 39.3353 47.664 39 47.25 39ZM27.75 22.4618V29.25H17.1435C16.8083 27.9592 15.6435 27 14.25 27C12.5955 27 11.25 28.3455 11.25 30C11.25 31.6545 12.5955 33 14.25 33C15.6435 33 16.8083 32.0408 17.1435 30.75H28.5C28.914 30.75 29.25 30.4147 29.25 30V22.4618C33.5153 22.1348 37.014 19.0567 37.9778 15H39.75V36H8.25V15H19.0223C19.986 19.0567 23.4848 22.1348 27.75 22.4618ZM15.75 30C15.75 30.8272 15.0773 31.5 14.25 31.5C13.4227 31.5 12.75 30.8272 12.75 30C12.75 29.1728 13.4227 28.5 14.25 28.5C15.0773 28.5 15.75 29.1728 15.75 30ZM28.5 4.5C33.0488 4.5 36.75 8.20125 36.75 12.75C36.75 17.2987 33.0488 21 28.5 21C23.9513 21 20.25 17.2987 20.25 12.75C20.25 8.20125 23.9513 4.5 28.5 4.5ZM5.25 12.75C5.25 12.336 5.58675 12 6 12H18.7882C18.7688 12.2483 18.75 12.4965 18.75 12.75C18.75 13.0035 18.7688 13.2517 18.7882 13.5H7.5C7.086 13.5 6.75 13.8352 6.75 14.25V36.75C6.75 37.1647 7.086 37.5 7.5 37.5H40.5C40.914 37.5 41.25 37.1647 41.25 36.75V14.25C41.25 13.8352 40.914 13.5 40.5 13.5H38.2118C38.2313 13.2517 38.25 13.0035 38.25 12.75C38.25 12.4965 38.2313 12.2483 38.2118 12H42C42.4132 12 42.75 12.336 42.75 12.75V39H29.25C29.1338 39 29.0183 39.027 28.9148 39.0788L27.573 39.75H20.427L19.0853 39.0788C18.9818 39.027 18.8662 39 18.75 39H5.25V12.75ZM46.5 42.75C46.5 43.164 46.1632 43.5 45.75 43.5H2.25C1.83675 43.5 1.5 43.164 1.5 42.75V40.5H18.573L19.9147 41.1712C20.0182 41.223 20.1338 41.25 20.25 41.25H27.75C27.8662 41.25 27.9817 41.223 28.0852 41.1712L29.427 40.5H46.5V42.75Z" fill="#2BB9F3"/>
<path d="M26.25 16.5H25.5C25.086 16.5 24.75 16.8352 24.75 17.25C24.75 17.6648 25.086 18 25.5 18H26.25C26.25 18.4148 26.586 18.75 27 18.75C27.414 18.75 27.75 18.4148 27.75 18H28.5C28.5 18.4148 28.836 18.75 29.25 18.75C29.664 18.75 30 18.4148 30 18V17.8935C31.29 17.5582 32.25 16.3942 32.25 15C32.25 14.0992 31.8435 13.3005 31.2135 12.75C31.8435 12.1995 32.25 11.4008 32.25 10.5C32.25 9.10575 31.29 7.94175 30 7.6065V7.5C30 7.08525 29.664 6.75 29.25 6.75C28.836 6.75 28.5 7.08525 28.5 7.5H27.75C27.75 7.08525 27.414 6.75 27 6.75C26.586 6.75 26.25 7.08525 26.25 7.5H25.5C25.086 7.5 24.75 7.83525 24.75 8.25C24.75 8.66475 25.086 9 25.5 9H26.25V12.75V16.5ZM30.75 15C30.75 15.8273 30.0773 16.5 29.25 16.5H27.75V13.5H29.25C30.0773 13.5 30.75 14.1727 30.75 15ZM29.25 9C30.0773 9 30.75 9.67275 30.75 10.5C30.75 11.3273 30.0773 12 29.25 12H27.75V9H29.25Z" fill="#2BB9F3"/>
<path d="M10.5 18C10.9142 18 11.25 17.6642 11.25 17.25C11.25 16.8358 10.9142 16.5 10.5 16.5C10.0858 16.5 9.75 16.8358 9.75 17.25C9.75 17.6642 10.0858 18 10.5 18Z" fill="#2BB9F3"/>
<path d="M13.5 18C13.9142 18 14.25 17.6642 14.25 17.25C14.25 16.8358 13.9142 16.5 13.5 16.5C13.0858 16.5 12.75 16.8358 12.75 17.25C12.75 17.6642 13.0858 18 13.5 18Z" fill="#2BB9F3"/>
<path d="M16.5 18C16.9142 18 17.25 17.6642 17.25 17.25C17.25 16.8358 16.9142 16.5 16.5 16.5C16.0858 16.5 15.75 16.8358 15.75 17.25C15.75 17.6642 16.0858 18 16.5 18Z" fill="#2BB9F3"/>
</svg>
