<svg width="48" height="48" viewBox="0 0 48 48" fill="none" xmlns="http://www.w3.org/2000/svg">
<g clip-path="url(#clip0_84_23152)">
<path fill-rule="evenodd" clip-rule="evenodd" d="M43.7326 24.2711C42.1523 24.2711 40.8256 23.1658 40.4847 21.6873H26.0228V26.3127H33.1143C33.4554 24.835 34.7821 23.7303 36.3619 23.7303C38.1993 23.7303 39.6944 25.2254 39.6944 27.0631C39.6944 28.9008 38.1993 30.3959 36.3619 30.3959C34.7815 30.3959 33.4552 29.2906 33.1143 27.8126H26.0228V31.2757H41.9616C43.3518 31.2757 44.4824 32.4066 44.4824 33.7965V35.5918C45.9604 35.9329 47.0655 37.2596 47.0655 38.8394C47.0655 40.6771 45.5706 42.1722 43.7326 42.1722C41.8947 42.1722 40.3998 40.6771 40.3998 38.8394C40.3998 37.2596 41.5048 35.9329 42.9825 35.5918V33.7963C42.9825 33.243 42.5151 32.7753 41.9619 32.7753L26.0228 32.7756V37.1038H34.4072C35.7974 37.1038 36.928 38.2347 36.928 39.6246V41.4201C38.4063 41.761 39.5113 43.0877 39.5113 44.668C39.5113 46.506 38.0165 48.0008 36.1785 48.0008C34.3405 48.0008 32.8457 46.506 32.8457 44.668C32.8457 43.088 33.9507 41.7616 35.4284 41.4204V39.6249C35.4284 39.0624 34.9702 38.604 34.4075 38.604H26.0225V46.6958C26.0225 47.0083 25.829 47.2876 25.5368 47.3978C24.4734 47.7975 23.3546 48.0008 22.211 48.0008C18.7148 48.0008 15.5153 46.0622 13.882 43.0098C12.9829 43.264 12.0531 43.3925 11.1097 43.3925C5.49879 43.3925 0.934082 38.8278 0.934082 33.2166C0.934082 29.4 3.03559 25.9634 6.36251 24.2135C5.28757 22.6477 4.70397 20.7828 4.70397 18.8689C4.70397 14.1683 8.19092 10.1984 12.7688 9.52654C12.7683 9.49841 12.7683 9.47085 12.7683 9.44301C12.7683 4.2362 17.0042 0.000281251 22.211 0.000281251C23.3543 0.000281251 24.4731 0.203345 25.5365 0.603284C25.8293 0.713253 26.0225 0.993098 26.0225 1.30529V9.39688H34.4069C34.9697 9.39688 35.4278 8.939 35.4278 8.37594V6.581C33.9502 6.23956 32.8457 4.91289 32.8457 3.33283C32.8457 1.49485 34.3408 0 36.1785 0C38.0165 0 39.5113 1.49485 39.5113 3.33283C39.5113 4.91318 38.406 6.24012 36.928 6.58128V8.37594C36.9286 9.76616 35.7971 10.8971 34.4072 10.8971H26.0228V15.2252H41.9616C42.5148 15.2252 42.9823 14.7575 42.9823 14.2043V12.4094C41.5046 12.0682 40.3998 10.7413 40.3998 9.16175C40.3998 7.32434 41.8947 5.82893 43.7326 5.82893C45.5706 5.82893 47.0655 7.32434 47.0655 9.16175C47.0655 10.7415 45.9604 12.0685 44.4824 12.4096V14.2046C44.4822 15.5948 43.3518 16.7254 41.9616 16.7254H26.0228V20.1874H40.485C40.8265 18.7097 42.1528 17.6049 43.7323 17.6049C45.5703 17.6049 47.0652 19.1003 47.0652 20.938C47.0652 22.7754 45.5703 24.2708 43.7323 24.2708L43.7326 24.2711ZM14.271 41.3481C14.5593 41.3481 14.8324 41.5158 14.9556 41.7925C16.2327 44.6528 19.0807 46.5009 22.2113 46.5009C23.0013 46.5009 23.7759 46.3859 24.5226 46.1592V37.8539V32.0258V27.0631V20.9375V15.9759V10.1478V1.84276C23.7762 1.61579 23.0013 1.50104 22.2116 1.50104C17.8322 1.50104 14.2688 5.06421 14.2688 9.44385C14.2688 9.66801 14.2789 9.89976 14.2991 10.1335C14.3163 10.334 14.2522 10.5331 14.1208 10.6856C13.99 10.8386 13.803 10.9322 13.6022 10.9457C9.45374 11.2264 6.20417 14.7072 6.20417 18.8694C6.20417 20.7527 6.87551 22.5791 8.09474 24.0124C8.25027 24.1952 8.30877 24.4418 8.25252 24.675C8.19571 24.9084 8.03117 25.1005 7.80927 25.1917C4.54422 26.536 2.43399 29.6866 2.43399 33.2172C2.43399 38.001 6.32567 41.8929 11.1097 41.8929C12.1071 41.8929 13.0858 41.7242 14.019 41.3926C14.1017 41.3628 14.1872 41.3484 14.2707 41.3484L14.271 41.3481ZM11.11 39.0365C7.90067 39.0365 5.2901 36.4257 5.2901 33.2166C5.2901 30.8482 6.70564 28.7343 8.89686 27.8318C9.28049 27.674 9.71868 27.8568 9.87618 28.2396C10.034 28.6224 9.85143 29.0608 9.46837 29.2186C7.84133 29.8888 6.79029 31.4577 6.79029 33.2163C6.79029 35.5988 8.72839 37.5366 11.1106 37.5366C11.5252 37.5366 11.8607 37.8722 11.8607 38.2864C11.8607 38.701 11.5249 39.0363 11.1103 39.0363L11.11 39.0365ZM43.7326 37.0062C42.7221 37.0062 41.8997 37.8283 41.8997 38.8391C41.8997 39.8496 42.7221 40.6717 43.7326 40.6717C44.7432 40.6717 45.5655 39.8496 45.5655 38.8391C45.5655 37.8286 44.7429 37.0062 43.7326 37.0062ZM36.1788 42.8348C35.1683 42.8348 34.3459 43.6569 34.3459 44.6675C34.3459 45.678 35.1683 46.5004 36.1788 46.5004C37.1893 46.5004 38.0117 45.678 38.0117 44.6675C38.0117 43.6569 37.1896 42.8348 36.1788 42.8348ZM43.7326 7.32912C42.7221 7.32912 41.8997 8.15122 41.8997 9.16175C41.8997 10.1723 42.7221 10.9947 43.7326 10.9947C44.7432 10.9947 45.5655 10.1726 45.5655 9.16175C45.5655 8.15122 44.7429 7.32912 43.7326 7.32912ZM36.1788 1.50047C35.1683 1.50047 34.3459 2.32257 34.3459 3.33339C34.3459 4.34392 35.168 5.1663 36.1782 5.16658H36.1788C37.1893 5.16658 38.0117 4.3442 38.0117 3.33339C38.0117 2.32285 37.1896 1.50047 36.1788 1.50047ZM36.3622 25.2302C35.3516 25.2302 34.5292 26.0523 34.5292 27.0631C34.5292 28.0736 35.3513 28.896 36.3622 28.896C37.3727 28.896 38.1945 28.0739 38.1945 27.0631C38.1945 26.0526 37.3724 25.2302 36.3622 25.2302ZM43.7329 19.1048C42.7227 19.1048 41.9006 19.9266 41.9 20.9372V20.938C41.9 21.9486 42.7224 22.7709 43.7329 22.7709C44.7434 22.7709 45.5658 21.9488 45.5658 20.938C45.5658 19.9272 44.7432 19.1048 43.7329 19.1048Z" fill="#2BB9F3"/>
</g>
<defs>
<clipPath id="clip0_84_23152">
<rect width="48" height="48" fill="white"/>
</clipPath>
</defs>
</svg>
