<svg width="20" height="60" viewBox="0 0 20 60" fill="none" xmlns="http://www.w3.org/2000/svg">
<path d="M15.2897 6.54166C15.2897 6.93358 15.6072 7.25129 15.9988 7.25129C16.3905 7.25129 16.708 6.93358 16.708 6.54166C16.708 6.14974 16.3905 5.83203 15.9988 5.83203C15.6072 5.83203 15.2897 6.14974 15.2897 6.54166Z" fill="#2BB9F3"/>
<path d="M13.3043 6.54166C13.3043 6.93358 13.6218 7.25129 14.0135 7.25129C14.4051 7.25129 14.7227 6.93358 14.7227 6.54166C14.7227 6.14974 14.4051 5.83203 14.0135 5.83203C13.6218 5.83203 13.3043 6.14974 13.3043 6.54166Z" fill="#2BB9F3"/>
<path d="M5.36095 6.54166C5.36095 6.93358 5.67846 7.25129 6.07012 7.25129C6.46179 7.25129 6.7793 6.93358 6.7793 6.54166C6.7793 6.14974 6.46179 5.83203 6.07012 5.83203C5.67846 5.83203 5.36095 6.14974 5.36095 6.54166Z" fill="#2BB9F3"/>
<path d="M3.3756 6.54166C3.3756 6.93358 3.69311 7.25129 4.08477 7.25129C4.47644 7.25129 4.79395 6.93358 4.79395 6.54166C4.79395 6.14974 4.47644 5.83203 4.08477 5.83203C3.69311 5.83203 3.3756 6.14974 3.3756 6.54166Z" fill="#2BB9F3"/>
<path d="M13.3043 8.64713C13.3043 9.03905 13.6218 9.35676 14.0135 9.35676C14.4051 9.35676 14.7227 9.03905 14.7227 8.64713C14.7227 8.25521 14.4051 7.9375 14.0135 7.9375C13.6218 7.9375 13.3043 8.25521 13.3043 8.64713Z" fill="#2BB9F3"/>
<path d="M11.318 8.64322C11.318 9.03514 11.6355 9.35285 12.0272 9.35285C12.4188 9.35285 12.7363 9.03514 12.7363 8.64322C12.7363 8.25131 12.4188 7.93359 12.0272 7.93359C11.6355 7.93359 11.318 8.25131 11.318 8.64322Z" fill="#2BB9F3"/>
<path d="M7.34728 8.64322C7.34728 9.03514 7.66479 9.35285 8.05645 9.35285C8.44812 9.35285 8.76562 9.03514 8.76562 8.64322C8.76562 8.25131 8.44812 7.93359 8.05645 7.93359C7.66479 7.93359 7.34728 8.25131 7.34728 8.64322Z" fill="#2BB9F3"/>
<path d="M5.36095 8.64322C5.36095 9.03514 5.67846 9.35285 6.07012 9.35285C6.46179 9.35285 6.7793 9.03514 6.7793 8.64322C6.7793 8.25131 6.46179 7.93359 6.07012 7.93359C5.67846 7.93359 5.36095 8.25131 5.36095 8.64322Z" fill="#2BB9F3"/>
<path d="M11.318 10.7409C11.318 11.1328 11.6355 11.4505 12.0272 11.4505C12.4188 11.4505 12.7363 11.1328 12.7363 10.7409C12.7363 10.349 12.4188 10.0312 12.0272 10.0312C11.6355 10.0312 11.318 10.349 11.318 10.7409Z" fill="#2BB9F3"/>
<path d="M9.33263 10.7448C9.33263 11.1367 9.65014 11.4544 10.0418 11.4544C10.4335 11.4544 10.751 11.1367 10.751 10.7448C10.751 10.3529 10.4335 10.0352 10.0418 10.0352C9.65014 10.0352 9.33263 10.3529 9.33263 10.7448Z" fill="#2BB9F3"/>
<path d="M7.34728 10.7409C7.34728 11.1328 7.66479 11.4505 8.05645 11.4505C8.44812 11.4505 8.76562 11.1328 8.76562 10.7409C8.76562 10.349 8.44812 10.0312 8.05645 10.0312C7.66479 10.0312 7.34728 10.349 7.34728 10.7409Z" fill="#2BB9F3"/>
<path d="M9.33263 12.8463C9.33263 13.2383 9.65014 13.556 10.0418 13.556C10.4335 13.556 10.751 13.2383 10.751 12.8463C10.751 12.4544 10.4335 12.1367 10.0418 12.1367C9.65014 12.1367 9.33263 12.4544 9.33263 12.8463Z" fill="#2BB9F3"/>
<path d="M15.2897 26.5417C15.2897 26.9336 15.6072 27.2513 15.9988 27.2513C16.3905 27.2513 16.708 26.9336 16.708 26.5417C16.708 26.1497 16.3905 25.832 15.9988 25.832C15.6072 25.832 15.2897 26.1497 15.2897 26.5417Z" fill="#2BB9F3"/>
<path d="M13.3043 26.5417C13.3043 26.9336 13.6218 27.2513 14.0135 27.2513C14.4051 27.2513 14.7227 26.9336 14.7227 26.5417C14.7227 26.1497 14.4051 25.832 14.0135 25.832C13.6218 25.832 13.3043 26.1497 13.3043 26.5417Z" fill="#2BB9F3"/>
<path d="M5.36095 26.5417C5.36095 26.9336 5.67846 27.2513 6.07012 27.2513C6.46179 27.2513 6.7793 26.9336 6.7793 26.5417C6.7793 26.1497 6.46179 25.832 6.07012 25.832C5.67846 25.832 5.36095 26.1497 5.36095 26.5417Z" fill="#2BB9F3"/>
<path d="M3.3756 26.5417C3.3756 26.9336 3.69311 27.2513 4.08477 27.2513C4.47644 27.2513 4.79395 26.9336 4.79395 26.5417C4.79395 26.1497 4.47644 25.832 4.08477 25.832C3.69311 25.832 3.3756 26.1497 3.3756 26.5417Z" fill="#2BB9F3"/>
<path d="M13.3043 28.6471C13.3043 29.039 13.6218 29.3568 14.0135 29.3568C14.4051 29.3568 14.7227 29.039 14.7227 28.6471C14.7227 28.2552 14.4051 27.9375 14.0135 27.9375C13.6218 27.9375 13.3043 28.2552 13.3043 28.6471Z" fill="#2BB9F3"/>
<path d="M11.318 28.6432C11.318 29.0351 11.6355 29.3529 12.0272 29.3529C12.4188 29.3529 12.7363 29.0351 12.7363 28.6432C12.7363 28.2513 12.4188 27.9336 12.0272 27.9336C11.6355 27.9336 11.318 28.2513 11.318 28.6432Z" fill="#2BB9F3"/>
<path d="M7.34728 28.6432C7.34728 29.0351 7.66479 29.3529 8.05645 29.3529C8.44812 29.3529 8.76562 29.0351 8.76562 28.6432C8.76562 28.2513 8.44812 27.9336 8.05645 27.9336C7.66479 27.9336 7.34728 28.2513 7.34728 28.6432Z" fill="#2BB9F3"/>
<path d="M5.36095 28.6432C5.36095 29.0351 5.67846 29.3529 6.07012 29.3529C6.46179 29.3529 6.7793 29.0351 6.7793 28.6432C6.7793 28.2513 6.46179 27.9336 6.07012 27.9336C5.67846 27.9336 5.36095 28.2513 5.36095 28.6432Z" fill="#2BB9F3"/>
<path d="M11.318 30.7409C11.318 31.1328 11.6355 31.4505 12.0272 31.4505C12.4188 31.4505 12.7363 31.1328 12.7363 30.7409C12.7363 30.349 12.4188 30.0312 12.0272 30.0312C11.6355 30.0312 11.318 30.349 11.318 30.7409Z" fill="#2BB9F3"/>
<path d="M9.33263 30.7448C9.33263 31.1367 9.65014 31.4544 10.0418 31.4544C10.4335 31.4544 10.751 31.1367 10.751 30.7448C10.751 30.3529 10.4335 30.0352 10.0418 30.0352C9.65014 30.0352 9.33263 30.3529 9.33263 30.7448Z" fill="#2BB9F3"/>
<path d="M7.34728 30.7409C7.34728 31.1328 7.66479 31.4505 8.05645 31.4505C8.44812 31.4505 8.76562 31.1328 8.76562 30.7409C8.76562 30.349 8.44812 30.0312 8.05645 30.0312C7.66479 30.0312 7.34728 30.349 7.34728 30.7409Z" fill="#2BB9F3"/>
<path d="M9.33263 32.8463C9.33263 33.2383 9.65014 33.556 10.0418 33.556C10.4335 33.556 10.751 33.2383 10.751 32.8463C10.751 32.4544 10.4335 32.1367 10.0418 32.1367C9.65014 32.1367 9.33263 32.4544 9.33263 32.8463Z" fill="#2BB9F3"/>
<path d="M15.2897 46.5417C15.2897 46.9336 15.6072 47.2513 15.9988 47.2513C16.3905 47.2513 16.708 46.9336 16.708 46.5417C16.708 46.1497 16.3905 45.832 15.9988 45.832C15.6072 45.832 15.2897 46.1497 15.2897 46.5417Z" fill="#2BB9F3"/>
<path d="M13.3043 46.5417C13.3043 46.9336 13.6218 47.2513 14.0135 47.2513C14.4051 47.2513 14.7227 46.9336 14.7227 46.5417C14.7227 46.1497 14.4051 45.832 14.0135 45.832C13.6218 45.832 13.3043 46.1497 13.3043 46.5417Z" fill="#2BB9F3"/>
<path d="M5.36095 46.5417C5.36095 46.9336 5.67846 47.2513 6.07012 47.2513C6.46179 47.2513 6.7793 46.9336 6.7793 46.5417C6.7793 46.1497 6.46179 45.832 6.07012 45.832C5.67846 45.832 5.36095 46.1497 5.36095 46.5417Z" fill="#2BB9F3"/>
<path d="M3.3756 46.5417C3.3756 46.9336 3.69311 47.2513 4.08477 47.2513C4.47644 47.2513 4.79395 46.9336 4.79395 46.5417C4.79395 46.1497 4.47644 45.832 4.08477 45.832C3.69311 45.832 3.3756 46.1497 3.3756 46.5417Z" fill="#2BB9F3"/>
<path d="M13.3043 48.6471C13.3043 49.039 13.6218 49.3568 14.0135 49.3568C14.4051 49.3568 14.7227 49.039 14.7227 48.6471C14.7227 48.2552 14.4051 47.9375 14.0135 47.9375C13.6218 47.9375 13.3043 48.2552 13.3043 48.6471Z" fill="#2BB9F3"/>
<path d="M11.318 48.6432C11.318 49.0351 11.6355 49.3529 12.0272 49.3529C12.4188 49.3529 12.7363 49.0351 12.7363 48.6432C12.7363 48.2513 12.4188 47.9336 12.0272 47.9336C11.6355 47.9336 11.318 48.2513 11.318 48.6432Z" fill="#2BB9F3"/>
<path d="M7.34728 48.6432C7.34728 49.0351 7.66479 49.3529 8.05645 49.3529C8.44812 49.3529 8.76562 49.0351 8.76562 48.6432C8.76562 48.2513 8.44812 47.9336 8.05645 47.9336C7.66479 47.9336 7.34728 48.2513 7.34728 48.6432Z" fill="#2BB9F3"/>
<path d="M5.36095 48.6432C5.36095 49.0351 5.67846 49.3529 6.07012 49.3529C6.46179 49.3529 6.7793 49.0351 6.7793 48.6432C6.7793 48.2513 6.46179 47.9336 6.07012 47.9336C5.67846 47.9336 5.36095 48.2513 5.36095 48.6432Z" fill="#2BB9F3"/>
<path d="M11.318 50.7409C11.318 51.1328 11.6355 51.4505 12.0272 51.4505C12.4188 51.4505 12.7363 51.1328 12.7363 50.7409C12.7363 50.349 12.4188 50.0312 12.0272 50.0312C11.6355 50.0312 11.318 50.349 11.318 50.7409Z" fill="#2BB9F3"/>
<path d="M9.33263 50.7448C9.33263 51.1367 9.65014 51.4544 10.0418 51.4544C10.4335 51.4544 10.751 51.1367 10.751 50.7448C10.751 50.3529 10.4335 50.0352 10.0418 50.0352C9.65014 50.0352 9.33263 50.3529 9.33263 50.7448Z" fill="#2BB9F3"/>
<path d="M7.34728 50.7409C7.34728 51.1328 7.66479 51.4505 8.05645 51.4505C8.44812 51.4505 8.76562 51.1328 8.76562 50.7409C8.76562 50.349 8.44812 50.0312 8.05645 50.0312C7.66479 50.0312 7.34728 50.349 7.34728 50.7409Z" fill="#2BB9F3"/>
<path d="M9.33263 52.8463C9.33263 53.2383 9.65014 53.556 10.0418 53.556C10.4335 53.556 10.751 53.2383 10.751 52.8463C10.751 52.4544 10.4335 52.1367 10.0418 52.1367C9.65014 52.1367 9.33263 52.4544 9.33263 52.8463Z" fill="#2BB9F3"/>
</svg>
