<svg width="64" height="64" viewBox="0 0 64 64" fill="none" xmlns="http://www.w3.org/2000/svg">
<g clip-path="url(#clip0_179_688)">
<path d="M9.11991 41.6299H25.5799L23.3999 61.7799C23.353 62.2129 23.4488 62.6494 23.6726 63.023C23.8964 63.3966 24.236 63.6869 24.6399 63.8499C25.0466 64.0215 25.4985 64.0537 25.9254 63.9415C26.3523 63.8294 26.7301 63.5792 26.9999 63.2299L56.4499 25.5999C56.6799 25.305 56.8227 24.9514 56.8619 24.5795C56.901 24.2075 56.8351 23.832 56.6716 23.4956C56.5081 23.1592 56.2535 22.8754 55.9368 22.6764C55.6201 22.4774 55.2539 22.3712 54.8799 22.3699H38.4199L40.5999 2.21992C40.6468 1.78693 40.5511 1.35046 40.3272 0.976849C40.1034 0.603233 39.7638 0.312884 39.3599 0.149917C38.9533 -0.0216222 38.5013 -0.0538287 38.0744 0.0583154C37.6475 0.170459 37.2697 0.420655 36.9999 0.769917L7.54991 38.3999C7.31988 38.6949 7.17716 39.0484 7.13796 39.4204C7.09877 39.7923 7.16467 40.1678 7.32819 40.5042C7.4917 40.8407 7.74627 41.1245 8.06299 41.3234C8.37971 41.5224 8.74588 41.6286 9.11991 41.6299ZM35.8699 8.73992L34.1999 24.1499C34.1689 24.4304 34.1975 24.7143 34.284 24.983C34.3706 25.2516 34.5129 25.4989 34.7018 25.7086C34.8908 25.9183 35.1219 26.0856 35.3801 26.1996C35.6383 26.3136 35.9177 26.3716 36.1999 26.3699H50.7699L28.1299 55.2599L29.7999 39.8499C29.831 39.5694 29.8023 39.2855 29.7158 39.0168C29.6293 38.7482 29.4869 38.5009 29.298 38.2912C29.1091 38.0815 28.8779 37.9142 28.6197 37.8002C28.3615 37.6862 28.0821 37.6282 27.7999 37.6299H13.2299L35.8699 8.73992Z" fill="#2BB9F3"/>
</g>
<defs>
<clipPath id="clip0_179_688">
<rect width="64" height="64" fill="white"/>
</clipPath>
</defs>
</svg>
