<svg width="48" height="48" viewBox="0 0 48 48" fill="none" xmlns="http://www.w3.org/2000/svg">
<g clip-path="url(#clip0_179_3393)">
<path d="M37.5 38.25H29.7465L33.4815 34.9823C34.1287 34.4152 34.5 33.597 34.5 32.7367C34.5 31.7017 33.9757 30.7567 33.0983 30.2085L28.9005 27.5842L34.0905 21.7455C37.965 21.6367 41.5672 19.692 43.7812 16.494L46.8105 12.1177C47.0978 11.7037 47.25 11.2192 47.25 10.7145C47.25 9.35625 46.1445 8.25 44.7855 8.25H44.373C43.587 8.25 42.8415 8.6295 42.3802 9.2655L40.0387 12.4852C38.5425 14.5425 36.2925 15.9052 33.822 16.338C34.7048 15.3982 35.25 14.1375 35.25 12.75C35.25 9.85575 32.895 7.5 30 7.5C27.105 7.5 24.75 9.85575 24.75 12.75C24.75 14.2185 25.3575 15.546 26.3333 16.5H23.556C23.4143 16.5 23.2732 16.509 23.1315 16.5127C23.202 16.0042 23.25 15.498 23.25 15C23.25 9.83625 19.749 5.48625 15 4.1685V2.25H16.5V0.75H7.5V2.25H9V4.1685C4.251 5.48625 0.75 9.83625 0.75 15C0.75 19.7977 3.8145 24.0457 8.29425 25.608C8.26725 25.7535 8.25 25.9012 8.25 26.052C8.25 27.402 9.348 28.5 10.698 28.5H11.1698C11.931 28.5 12.636 28.1557 13.1017 27.555L13.698 26.7892C15.9607 23.88 19.266 22.098 22.893 21.7965L9.8415 34.8487C9.2985 35.391 9 36.111 9 36.879C9 37.3777 9.1395 37.8405 9.366 38.25H4.5V39.75H26.7765H26.9888H39V38.0752L44.292 41.25L39 44.4247V42.75H6.75V44.25H37.5V47.0752L47.208 41.25L37.5 35.4247V38.25ZM26.25 12.75C26.25 10.6822 27.9323 9 30 9C32.0677 9 33.75 10.6822 33.75 12.75C33.75 14.8177 32.0677 16.5 30 16.5C27.9323 16.5 26.25 14.8177 26.25 12.75ZM10.5 2.25H13.5V3.86175C13.008 3.79575 12.51 3.75 12 3.75C11.49 3.75 10.992 3.79575 10.5 3.86175V2.25ZM2.25 15C2.25 9.624 6.624 5.25 12 5.25C17.376 5.25 21.75 9.624 21.75 15C21.75 15.5287 21.6885 16.0702 21.5955 16.614C21.0675 16.674 20.5462 16.7617 20.0287 16.8682C20.1705 16.2592 20.25 15.636 20.25 15C20.25 10.4512 16.5487 6.75 12 6.75C7.45125 6.75 3.75 10.4512 3.75 15C3.75 18.7882 6.378 22.0522 9.9435 22.977C9.744 23.2222 9.549 23.4712 9.3615 23.7285L8.9805 24.2528C4.99425 22.953 2.25 19.2247 2.25 15ZM11.1202 21.6787C9.87375 21.5152 8.73675 21.0097 7.80075 20.2597L8.81775 19.2427L7.75725 18.1822L6.7395 19.2C5.95875 18.2265 5.44275 17.0392 5.2965 15.75H6.75V14.25H5.29425C5.439 12.9502 5.95425 11.763 6.73125 10.7917L7.75725 11.8177L8.81775 10.7572L7.79175 9.73125C8.763 8.95425 9.95025 8.439 11.25 8.29425V9.75H12.75V8.29425C14.0498 8.439 15.237 8.95425 16.2083 9.73125L15.1823 10.7572L16.2428 11.8177L17.2687 10.7917C18.0457 11.763 18.561 12.9502 18.7057 14.25H17.25V15.75H18.7057C18.6472 16.2817 18.5212 16.7992 18.3382 17.3017C15.6248 18.15 13.1415 19.6515 11.1202 21.6787ZM24.3255 38.25H14.6528L22.5607 30.8685L27.1155 33.1462L25.041 34.806C24.3795 35.3355 24 36.126 24 36.9742C24 37.4362 24.1245 37.866 24.3255 38.25ZM26.7765 38.25C26.0723 38.25 25.5 37.6777 25.5 36.9742C25.5 36.5835 25.6748 36.2205 25.9785 35.9775L29.8838 32.8537L22.2997 29.061L12.849 37.8817C12.5948 38.1187 12.2625 38.25 11.8717 38.25C11.115 38.25 10.5 37.635 10.5 36.879C10.5 36.5182 10.6462 36.165 10.902 35.9092L24.75 22.0605V20.25H24C19.4775 20.25 15.291 22.2975 12.5145 25.8675L11.9183 26.634C11.7367 26.8665 11.4645 27 11.1698 27H10.698C10.1753 27 9.75 26.5755 9.75 26.052C9.75 25.8502 9.81225 25.6575 9.9315 25.494L10.5743 24.6097C13.5848 20.4712 18.4373 18 23.556 18H32.1532C35.7397 18 39.141 16.2675 41.2515 13.3665L43.5938 10.1467C43.7738 9.8985 44.0655 9.75 44.373 9.75H44.7855C45.3172 9.75 45.75 10.1827 45.75 10.7145C45.75 10.9117 45.6908 11.1015 45.5783 11.2627L42.5482 15.6397C40.5503 18.5265 37.2607 20.25 33.75 20.25H33.4132L26.5995 27.9157L32.3032 31.4805C32.7397 31.7535 33 32.223 33 32.7367C33 33.1642 32.8155 33.5707 32.4938 33.852L27.8288 37.9335C27.5963 38.1382 27.2978 38.25 26.9888 38.25H26.7765Z" fill="#2BB9F3"/>
<path d="M3.75 42.75H5.25V44.25H3.75V42.75Z" fill="#2BB9F3"/>
<path d="M0.75 42.75H2.25V44.25H0.75V42.75Z" fill="#2BB9F3"/>
<path d="M12.75 11.25H11.25V15.3105L12.9697 17.0303L14.0303 15.9697L12.75 14.6895V11.25Z" fill="#2BB9F3"/>
</g>
<defs>
<clipPath id="clip0_179_3393">
<rect width="48" height="48" fill="white"/>
</clipPath>
</defs>
</svg>
