<svg width="20" height="20" viewBox="0 0 20 20" fill="none" xmlns="http://www.w3.org/2000/svg">
<path d="M10.1875 2C8.56817 2 6.9852 2.48019 5.63877 3.37984C4.29234 4.2795 3.24293 5.55821 2.62324 7.05428C2.00355 8.55035 1.84141 10.1966 2.15732 11.7848C2.47324 13.373 3.25302 14.8319 4.39807 15.9769C5.54311 17.122 7.00198 17.9018 8.5902 18.2177C10.1784 18.5336 11.8247 18.3715 13.3207 17.7518C14.8168 17.1321 16.0955 16.0827 16.9952 14.7362C17.8948 13.3898 18.375 11.8068 18.375 10.1875C18.3725 8.01679 17.5091 5.9357 15.9742 4.40078C14.4393 2.86585 12.3582 2.00246 10.1875 2ZM10.1875 17.2833C9.06036 17.2833 7.88026 15.8303 7.29459 13.4625H13.0804C12.4947 15.8303 11.3146 17.2833 10.1875 17.2833ZM7.07298 12.3708C6.85901 10.9231 6.85901 9.45186 7.07298 8.00417H13.302C13.4103 8.72688 13.4639 9.45672 13.4625 10.1875C13.4639 10.9183 13.4103 11.6481 13.302 12.3708H7.07298ZM3.09167 10.1875C3.09207 9.44601 3.20922 8.70921 3.43882 8.00417H5.97694C5.7688 9.45228 5.7688 10.9227 5.97694 12.3708H3.43882C3.20922 11.6658 3.09207 10.929 3.09167 10.1875ZM10.1875 3.09167C11.3146 3.09167 12.4947 4.54467 13.0804 6.9125H7.29459C7.88026 4.54467 9.06036 3.09167 10.1875 3.09167ZM14.3981 8.00417H16.9362C17.3989 9.42294 17.3989 10.9521 16.9362 12.3708H14.3981C14.5016 11.6477 14.5537 10.918 14.5542 10.1875C14.5537 9.45695 14.5016 8.72735 14.3981 8.00417ZM16.476 6.9125H14.2016C13.9587 5.72532 13.4824 4.59821 12.8004 3.59656C14.3823 4.22744 15.6862 5.40369 16.476 6.9125ZM7.5746 3.59656C6.89262 4.59821 6.41635 5.72532 6.17344 6.9125H3.89896C4.68884 5.40369 5.99269 4.22744 7.5746 3.59656ZM3.89896 13.4625H6.17344C6.41635 14.6497 6.89262 15.7768 7.5746 16.7784C5.99269 16.1476 4.68884 14.9713 3.89896 13.4625ZM12.8004 16.7784C13.4824 15.7768 13.9587 14.6497 14.2016 13.4625H16.476C15.6862 14.9713 14.3823 16.1476 12.8004 16.7784Z" fill="currentColor" fill-opacity="0.8"/>
</svg>
