<svg width="20" height="16" viewBox="0 0 20 16" fill="none" xmlns="http://www.w3.org/2000/svg">
<path d="M16.9309 1.26369C15.6562 0.678809 14.2892 0.247872 12.86 0.00103566C12.8339 -0.00372996 12.8079 0.00818409 12.7945 0.0319732C12.6187 0.344668 12.424 0.752559 12.2876 1.07318C10.7504 0.843028 9.22101 0.843028 7.7153 1.07318C7.5789 0.74545 7.3771 0.344668 7.2005 0.0319732C7.1871 0.00896535 7.16108 -0.00294871 7.13507 0.00103566C5.70663 0.247051 4.33968 0.677989 3.06413 1.26369C3.05308 1.26846 3.04362 1.27639 3.03733 1.2867C0.444522 5.16033 -0.265791 8.93877 0.0826466 12.6703C0.0842091 12.6886 0.0944826 12.706 0.108662 12.7171C1.81933 13.9734 3.47644 14.7361 5.10273 15.2416C5.12874 15.2496 5.15632 15.2401 5.17288 15.2186C5.55757 14.6933 5.9005 14.1393 6.19452 13.5568C6.21187 13.5227 6.1953 13.4822 6.15983 13.4687C5.61589 13.2624 5.09796 13.0108 4.59972 12.7251C4.5603 12.7021 4.55714 12.6457 4.59343 12.6187C4.69827 12.5402 4.80315 12.4584 4.90327 12.3759C4.9214 12.3608 4.94663 12.3576 4.96792 12.3671C8.24105 13.8615 11.7846 13.8615 15.0191 12.3671C15.0404 12.3568 15.0656 12.36 15.0845 12.3751C15.1847 12.4576 15.2895 12.5401 15.3951 12.6187C15.4314 12.6457 15.429 12.7021 15.3896 12.7251C14.8914 13.0163 14.3735 13.2623 13.8287 13.4679C13.7933 13.4813 13.7775 13.5226 13.7949 13.5567C14.0952 14.1385 14.4382 14.6924 14.8157 15.2178C14.8315 15.24 14.8599 15.2496 14.8859 15.2416C16.5201 14.7361 18.1772 13.9734 19.8878 12.7171C19.9028 12.706 19.9123 12.6893 19.9139 12.6711C20.3309 8.35697 19.2154 4.60951 16.9568 1.28744C16.9514 1.27639 16.9419 1.26846 16.9309 1.26369ZM6.68339 10.3982C5.69796 10.3982 4.88597 9.4935 4.88597 8.3824C4.88597 7.27131 5.68218 6.36662 6.68339 6.36662C7.69241 6.36662 8.49655 7.27928 8.48077 8.3824C8.48077 9.4935 7.68452 10.3982 6.68339 10.3982ZM13.329 10.3982C12.3436 10.3982 11.5316 9.4935 11.5316 8.3824C11.5316 7.27131 12.3278 6.36662 13.329 6.36662C14.338 6.36662 15.1421 7.27928 15.1264 8.3824C15.1264 9.4935 14.3381 10.3982 13.329 10.3982Z" fill="currentColor" fill-opacity="0.8"/>
</svg>
