<svg width="48" height="48" viewBox="0 0 48 48" fill="none" xmlns="http://www.w3.org/2000/svg">
<mask id="mask0_179_3330" style="mask-type:luminance" maskUnits="userSpaceOnUse" x="0" y="0" width="48" height="48">
<path d="M47 47V1H1V47H47Z" fill="white" stroke="white" stroke-width="2"/>
</mask>
<g mask="url(#mask0_179_3330)">
<path d="M26.8125 12.6562C26.8125 11.103 25.5533 9.84375 24 9.84375C22.4468 9.84375 21.1875 11.103 21.1875 12.6562C21.1875 14.2095 22.4468 15.4688 24 15.4688C25.5533 15.4688 26.8125 16.728 26.8125 18.2812C26.8125 19.8345 25.5533 21.0938 24 21.0938C22.4468 21.0938 21.1875 19.8345 21.1875 18.2812" stroke="#2BB9F3" stroke-width="2" stroke-miterlimit="10"/>
<path d="M24 5.625V9.84375" stroke="#2BB9F3" stroke-width="2" stroke-miterlimit="10"/>
<path d="M24 21.0938V25.3125" stroke="#2BB9F3" stroke-width="2" stroke-miterlimit="10"/>
<path d="M38.0625 15.4688C38.0625 13.4707 37.0135 11.7267 35.4433 10.7288C35.8479 8.913 35.3566 6.93806 33.9436 5.52516C32.5307 4.11216 30.5558 3.62091 28.74 4.02544C27.742 2.45522 25.9981 1.40625 24 1.40625C22.0019 1.40625 20.258 2.45522 19.2601 4.02544C17.4443 3.62091 15.4693 4.11216 14.0564 5.52516C12.6434 6.93806 12.1521 8.913 12.5567 10.7288C10.9865 11.7267 9.9375 13.4707 9.9375 15.4688C9.9375 17.4668 10.9865 19.2108 12.5567 20.2087C12.1521 22.0245 12.6434 23.9994 14.0564 25.4124C15.4693 26.8253 17.4443 27.3166 19.2601 26.9121C20.258 28.4823 22.0019 29.5312 24 29.5312C25.9981 29.5312 27.742 28.4823 28.74 26.9121C30.5558 27.3166 32.5307 26.8253 33.9436 25.4124C35.3566 23.9994 35.8479 22.0245 35.4433 20.2087C37.0135 19.2108 38.0625 17.4668 38.0625 15.4688Z" stroke="#2BB9F3" stroke-width="2" stroke-miterlimit="10"/>
<path d="M11.3438 46.5938H36.6563" stroke="#2BB9F3" stroke-width="2" stroke-miterlimit="10"/>
<path d="M24 29.5313V46.5938" stroke="#2BB9F3" stroke-width="2" stroke-miterlimit="10"/>
<path d="M12.75 38.1562H15.5625C20.2224 38.1562 24 41.9338 24 46.5938H21.1875C16.5276 46.5938 12.75 42.8162 12.75 38.1562Z" stroke="#2BB9F3" stroke-width="2" stroke-miterlimit="10"/>
<path d="M35.25 38.1562H32.4375C27.7776 38.1562 24 41.9338 24 46.5938H26.8125C31.4724 46.5938 35.25 42.8162 35.25 38.1562Z" stroke="#2BB9F3" stroke-width="2" stroke-miterlimit="10"/>
</g>
</svg>
