<svg width="62" height="62" viewBox="0 0 62 62" fill="none" xmlns="http://www.w3.org/2000/svg">
<path d="M58.7345 41.2535C56.643 35.9895 53.9055 30.5915 52.864 29.0395C51.243 26.622 48.404 25.2825 45.526 25.5345C45.4275 25.5145 45.3265 25.5 45.223 25.5H16.223C16.1195 25.5 16.0185 25.5145 15.92 25.535C13.042 25.2835 10.203 26.6225 8.58247 29.0395C7.54047 30.592 4.80248 35.99 2.71148 41.254C-1.14552 50.963 -0.175025 53.2725 1.28048 54.2495C1.56148 54.4385 1.97848 54.7195 2.71448 54.7195C4.37698 54.7195 7.66647 53.284 14.6865 46.127C16.7175 52.295 21.0715 58.864 30.2495 61.9235C30.4025 61.9745 30.563 62 30.723 62C30.883 62 31.0435 61.9745 31.197 61.923C40.3765 58.863 44.7305 52.292 46.761 46.123C48.602 47.9945 50.879 50.1755 53.041 51.8725C54.799 53.252 56.903 54.6885 58.669 54.6885C59.2045 54.6885 59.7095 54.5565 60.1635 54.2505C61.6215 53.272 62.5915 50.963 58.7345 41.2535ZM13.778 42.746C7.86548 48.9535 4.26298 51.4105 3.03198 51.6685C2.93698 50.9935 2.96248 48.5635 5.81548 41.5765C7.77448 36.7795 10.198 32.015 11.074 30.71C11.773 29.667 12.8375 28.953 14.021 28.658C13.324 30.79 12.9735 32.9785 12.9785 35.177C12.9835 37.0685 13.1435 39.763 13.778 42.746ZM30.723 58.914C17.9455 54.375 15.995 42.125 15.979 35.1705C15.974 33.029 16.365 30.8935 17.1405 28.8245L17.2625 28.5H44.1835L44.3055 28.8245C45.081 30.894 45.472 33.029 45.467 35.1705C45.451 42.125 43.5005 54.375 30.723 58.914ZM58.414 51.6685C57.187 51.4085 53.586 48.9595 47.6675 42.747C48.302 39.7635 48.4625 37.0685 48.467 35.1775C48.472 32.979 48.1215 30.7905 47.425 28.6585C48.608 28.9535 49.6735 29.6675 50.3725 30.711C51.248 32.015 53.6715 36.7795 55.6305 41.5765C58.4835 48.5625 58.509 50.993 58.414 51.6685Z" fill="#2BB9F3"/>
<path d="M13.7227 18H15.7482C16.0017 20.799 18.3587 23 21.2227 23H40.2227C43.0867 23 45.4437 20.799 45.6972 18H47.7227C50.2042 18 52.2227 15.981 52.2227 13.5V9.5C52.2227 7.019 50.2042 5 47.7227 5H45.6972C45.4437 2.201 43.0867 0 40.2227 0H21.2227C18.3587 0 16.0017 2.201 15.7482 5H13.7227C11.2412 5 9.22266 7.019 9.22266 9.5V13.5C9.22266 15.981 11.2412 18 13.7227 18ZM45.7227 8H47.7227C48.5497 8 49.2227 8.673 49.2227 9.5V13.5C49.2227 14.327 48.5497 15 47.7227 15H45.7227V8ZM18.7227 16.5V6.5V5.5C18.7227 4.1215 19.8442 3 21.2227 3H40.2227C41.6012 3 42.7227 4.1215 42.7227 5.5V6.5V16.5V17.5C42.7227 18.8785 41.6012 20 40.2227 20H21.2227C19.8442 20 18.7227 18.8785 18.7227 17.5V16.5ZM12.2227 9.5C12.2227 8.673 12.8957 8 13.7227 8H15.7227V15H13.7227C12.8957 15 12.2227 14.327 12.2227 13.5V9.5Z" fill="#2BB9F3"/>
<path d="M24.7832 12.5606C25.3017 12.0431 26.1437 12.0431 26.6622 12.5606C26.9552 12.8536 27.3387 13.0001 27.7227 13.0001C28.1067 13.0001 28.4902 12.8536 28.7832 12.5606C29.3692 11.9751 29.3692 11.0251 28.7832 10.4396C27.0957 8.75158 24.3497 8.75158 22.6622 10.4396C22.0762 11.0251 22.0762 11.9751 22.6622 12.5606C23.2482 13.1466 24.1972 13.1466 24.7832 12.5606Z" fill="#2BB9F3"/>
<path d="M34.7832 12.5606C35.3017 12.0431 36.1437 12.0431 36.6622 12.5606C36.9552 12.8536 37.3387 13.0001 37.7227 13.0001C38.1067 13.0001 38.4902 12.8536 38.7832 12.5606C39.3692 11.9751 39.3692 11.0251 38.7832 10.4396C37.0957 8.75158 34.3497 8.75158 32.6622 10.4396C32.0762 11.0251 32.0762 11.9751 32.6622 12.5606C33.2482 13.1466 34.1972 13.1466 34.7832 12.5606Z" fill="#2BB9F3"/>
<path d="M38.2227 31H23.2227C21.0172 31 19.2227 32.7945 19.2227 35V43C19.2227 45.2055 21.0172 47 23.2227 47H38.2227C40.4282 47 42.2227 45.2055 42.2227 43V35C42.2227 32.7945 40.4282 31 38.2227 31ZM39.2227 43C39.2227 43.5515 38.7742 44 38.2227 44H23.2227C22.6712 44 22.2227 43.5515 22.2227 43V35C22.2227 34.4485 22.6712 34 23.2227 34H38.2227C38.7742 34 39.2227 34.4485 39.2227 35V43Z" fill="#2BB9F3"/>
<path d="M34.2227 50H27.2227C26.3942 50 25.7227 50.6715 25.7227 51.5C25.7227 52.3285 26.3942 53 27.2227 53H34.2227C35.0512 53 35.7227 52.3285 35.7227 51.5C35.7227 50.6715 35.0512 50 34.2227 50Z" fill="#2BB9F3"/>
<path d="M25.733 37.5H25.728C24.9 37.5 24.2305 38.1715 24.2305 39C24.2305 39.8285 24.905 40.5 25.733 40.5C26.5615 40.5 27.233 39.8285 27.233 39C27.233 38.1715 26.5615 37.5 25.733 37.5Z" fill="#2BB9F3"/>
<path d="M30.733 37.5H30.728C29.9 37.5 29.2305 38.1715 29.2305 39C29.2305 39.8285 29.905 40.5 30.733 40.5C31.5615 40.5 32.233 39.8285 32.233 39C32.233 38.1715 31.5615 37.5 30.733 37.5Z" fill="#2BB9F3"/>
<path d="M35.733 37.5H35.728C34.9 37.5 34.2305 38.1715 34.2305 39C34.2305 39.8285 34.905 40.5 35.733 40.5C36.5615 40.5 37.233 39.8285 37.233 39C37.233 38.1715 36.5615 37.5 35.733 37.5Z" fill="#2BB9F3"/>
</svg>
