<svg width="64" height="64" viewBox="0 0 64 64" fill="none" xmlns="http://www.w3.org/2000/svg">
<g clip-path="url(#clip0_179_728)">
<path d="M59.7331 4.26665C54.7997 -0.666683 46.7997 -0.666683 41.8664 4.26665L33.1997 12.9333C30.7997 15.3333 29.4664 18.5333 29.4664 21.8666C29.4664 24.2666 30.1331 26.6667 31.4664 28.8L28.7997 31.4667C26.7997 30.1333 24.3997 29.4667 21.8664 29.4667C18.5331 29.4667 15.3331 30.8 12.9331 33.2L4.26641 41.8666C-0.666927 46.8 -0.666927 54.8 4.26641 59.7333C6.66641 62.2666 9.99974 63.4666 13.1997 63.4666C16.3997 63.4666 19.5997 62.2666 22.1331 59.7333L30.7997 51.0666C33.3331 48.5333 34.6664 45.3333 34.6664 42C34.6664 39.6 33.9997 37.2 32.6664 35.0666L35.3331 32.4C37.3331 33.7333 39.7331 34.4 42.2664 34.4C45.5997 34.4 48.7997 33.0667 51.1997 30.6666L59.8664 22C64.6664 17.2 64.6664 9.19998 59.7331 4.26665ZM29.3331 42.1333C29.3331 44.1333 28.5331 45.8666 27.1997 47.3333L18.5331 56C15.5997 58.9333 10.9331 58.9333 7.99974 56C5.06641 53.0666 5.06641 48.4 7.99974 45.4666L16.6664 36.8C17.9997 35.4666 19.8664 34.6666 21.8664 34.6666C22.9331 34.6666 23.9997 34.9333 24.9331 35.3333L17.9997 42.2667C16.9331 43.3333 16.9331 44.9333 17.9997 46C18.5331 46.5333 19.1997 46.8 19.8664 46.8C20.5331 46.8 21.1997 46.5333 21.7331 46L28.6664 39.0666C29.0664 40 29.3331 41.0667 29.3331 42.1333ZM55.8664 18.4L47.1997 27.0666C45.8664 28.4 43.9997 29.2 41.9997 29.2C40.9331 29.2 39.9997 28.9333 39.0664 28.6666L46.1331 21.6C47.1997 20.5333 47.1997 18.9333 46.1331 17.8666C45.0664 16.8 43.4664 16.8 42.3997 17.8666L35.3331 24.9333C34.9331 24 34.6664 22.9333 34.6664 21.8666C34.6664 19.8666 35.4664 18.1333 36.7997 16.6666L45.4664 7.99998C48.3997 5.19998 53.0664 5.19998 55.8664 7.86665C58.7997 10.8 58.7997 15.4666 55.8664 18.4Z" fill="#2BB9F3"/>
</g>
<defs>
<clipPath id="clip0_179_728">
<rect width="64" height="64" fill="white"/>
</clipPath>
</defs>
</svg>
