<svg width="48" height="48" viewBox="0 0 48 48" fill="none" xmlns="http://www.w3.org/2000/svg">
<path d="M19.4876 30.8602C19.8716 30.8602 20.2076 30.5242 20.2076 30.1402V26.9722L22.3676 30.5242C22.5116 30.7642 22.7516 30.8602 22.9916 30.8602C23.0396 30.8602 23.1356 30.8602 23.1836 30.8122C23.4716 30.7162 23.7116 30.4282 23.7116 30.1402V24.3802C23.7116 23.9962 23.3756 23.6602 22.9916 23.6602C22.6076 23.6602 22.2716 23.9962 22.2716 24.3802V27.5482L20.1116 23.9962C19.9196 23.7082 19.6316 23.6122 19.2956 23.6602C19.0076 23.7562 18.7676 24.0442 18.7676 24.3322V30.0442C18.7676 30.5242 19.0556 30.8602 19.4876 30.8602Z" fill="#2BB9F3"/>
<path d="M26.7356 30.8629C27.1196 30.8629 27.4556 30.5269 27.4556 30.1429V28.2709H30.2396C30.6236 28.2709 30.9596 27.9349 30.9596 27.5509C30.9596 27.1669 30.6236 26.8309 30.2396 26.8309H27.4556V25.1509H30.2396C30.6236 25.1509 30.9596 24.8149 30.9596 24.4309C30.9596 24.0469 30.6236 23.7109 30.2396 23.7109H26.7356C26.3516 23.7109 26.0156 24.0469 26.0156 24.4309V30.1429C26.0156 30.5269 26.3516 30.8629 26.7356 30.8629Z" fill="#2BB9F3"/>
<path d="M34.0315 25.1041H35.2315V30.0961C35.2315 30.4801 35.5675 30.8161 35.9515 30.8161C36.3355 30.8161 36.6715 30.4801 36.6715 30.0961V25.1041H37.8715C38.2555 25.1041 38.5915 24.7681 38.5915 24.3841C38.5915 24.0001 38.2555 23.6641 37.8715 23.6641H34.0315C33.6475 23.6641 33.3115 24.0001 33.3115 24.3841C33.3115 24.7681 33.5995 25.1041 34.0315 25.1041Z" fill="#2BB9F3"/>
<path d="M45.2638 18.3824C45.1198 18.1904 44.9278 18.0944 44.6878 18.0944H37.7758C38.4478 16.6064 38.8318 15.0224 38.8318 13.3904C38.8318 7.34244 33.8878 2.39844 27.7918 2.39844C21.7438 2.39844 16.7998 7.34244 16.7998 13.3904C16.7998 15.0224 17.1838 16.6544 17.8558 18.0944H11.4718L9.8398 11.9504C9.7438 11.6144 9.4558 11.4224 9.1678 11.4224H3.3118C2.9278 11.4224 2.5918 11.7584 2.5918 12.1424C2.5918 12.5264 2.9278 12.8624 3.3118 12.8624H8.5918L14.2558 34.1744C12.8158 34.3664 11.6638 35.6144 11.6638 37.1024C11.6638 38.7344 13.0078 40.0304 14.5918 40.0304H15.8398C15.4078 40.6064 15.1678 41.3264 15.1678 42.0944C15.1678 44.0144 16.7518 45.5984 18.6718 45.5984C20.5918 45.5984 22.1758 44.0144 22.1758 42.0944C22.1758 41.3264 21.9358 40.6064 21.5038 40.0304H31.5358C31.1038 40.6064 30.8638 41.3264 30.8638 42.0944C30.8638 44.0144 32.4478 45.5984 34.3678 45.5984C36.2878 45.5984 37.8718 44.0144 37.8718 42.0944C37.8718 41.3264 37.6318 40.6064 37.1998 40.0304H39.2638C39.6478 40.0304 39.9838 39.6944 39.9838 39.3104C39.9838 38.9264 39.6478 38.5904 39.2638 38.5904H14.6398C13.8238 38.5904 13.1518 37.9184 13.1518 37.1024C13.1518 36.2864 13.8238 35.6144 14.6398 35.6144H40.4158C40.7518 35.6144 41.0398 35.3744 41.0878 35.0864L45.3598 19.0544C45.4558 18.8144 45.4078 18.5744 45.2638 18.3824ZM20.7358 42.0944C20.7358 43.2464 19.8238 44.1584 18.6718 44.1584C17.5198 44.1584 16.6078 43.2464 16.6078 42.0944C16.6078 40.9424 17.5198 40.0304 18.6718 40.0304C19.7758 40.0304 20.7358 40.9424 20.7358 42.0944ZM36.4318 42.0944C36.4318 43.2464 35.5198 44.1584 34.3678 44.1584C33.2158 44.1584 32.3038 43.2464 32.3038 42.0944C32.3038 40.9424 33.2158 40.0304 34.3678 40.0304C35.4718 40.0304 36.4318 40.9424 36.4318 42.0944ZM18.2398 13.3904C18.2398 8.11044 22.5598 3.83844 27.7918 3.83844C33.0718 3.83844 37.3438 8.11044 37.3438 13.3904C37.3438 15.0704 36.9118 16.6544 36.0958 18.0944H29.7118L32.3038 13.7744C32.4478 13.5344 32.4478 13.2464 32.3038 13.0544L28.3678 6.52644C28.2238 6.28644 27.9838 6.19044 27.7438 6.19044C27.5038 6.19044 27.2638 6.33444 27.1198 6.52644L23.2318 13.0544C23.0878 13.2944 23.0878 13.5824 23.2318 13.7744L25.8238 18.0944H19.4878C18.6718 16.6544 18.2398 15.0704 18.2398 13.3904ZM27.5998 15.2624C27.6478 15.2624 27.7438 15.3104 27.7918 15.3104C27.8398 15.3104 27.9358 15.3104 27.9838 15.2624L30.0958 14.6384L28.0318 18.0944H27.5518L25.4878 14.6384L27.5998 15.2624ZM25.0078 12.9584L27.8398 8.25444L30.6718 12.9584L27.8398 13.8224L25.0078 12.9584ZM39.8878 34.1264H15.7438L11.8558 19.5344H43.7278L39.8878 34.1264Z" fill="#2BB9F3"/>
</svg>
