<svg width="48" height="48" viewBox="0 0 48 48" fill="none" xmlns="http://www.w3.org/2000/svg">
<path d="M43.4805 45.3398H4.51862C3.83352 45.3391 3.17669 45.0666 2.69224 44.5822C2.2078 44.0978 1.93531 43.441 1.93457 42.7559V38.1724C1.93452 38.0738 1.95388 37.9763 1.99155 37.8853C2.02922 37.7943 2.08446 37.7116 2.15412 37.6419C2.22377 37.5722 2.30647 37.517 2.39749 37.4793C2.48851 37.4417 2.58606 37.4223 2.68457 37.4224H4.8028V18.7705C4.80375 17.9169 5.14328 17.0985 5.74689 16.4949C6.35049 15.8913 7.16889 15.5517 8.02252 15.5508H17.6085C18.0245 15.2197 18.6529 14.7173 19.0147 14.4287C19.1002 10.1946 20.6627 6.12352 23.4319 2.91943C23.5024 2.83805 23.5896 2.77278 23.6876 2.72804C23.7855 2.68331 23.8919 2.66016 23.9996 2.66016C24.1072 2.66016 24.2137 2.68331 24.3116 2.72804C24.4095 2.77278 24.4967 2.83805 24.5672 2.91943C27.333 6.12498 28.895 10.1943 28.9844 14.4272L30.3907 15.5507H39.9766C40.8303 15.5517 41.6487 15.8912 42.2523 16.4948C42.8559 17.0984 43.1954 17.9168 43.1964 18.7705V37.4224H45.3146C45.4131 37.4223 45.5106 37.4417 45.6017 37.4793C45.6927 37.517 45.7754 37.5722 45.845 37.6419C45.9147 37.7116 45.9699 37.7943 46.0076 37.8853C46.0453 37.9763 46.0646 38.0738 46.0646 38.1724V42.7559C46.0638 43.441 45.7913 44.0978 45.3069 44.5822C44.8225 45.0666 44.1656 45.3391 43.4805 45.3398ZM3.43457 38.9224V42.7559C3.43492 43.0432 3.54923 43.3188 3.75245 43.522C3.95566 43.7252 4.23118 43.8395 4.51856 43.8398H43.4805C43.7679 43.8395 44.0434 43.7252 44.2466 43.522C44.4498 43.3188 44.5642 43.0432 44.5645 42.7559V38.9224C43.6257 38.9264 30.412 38.9279 29.0584 38.9268C29.1379 39.2572 29.1432 39.6012 29.0737 39.934C29.0043 40.2667 28.8619 40.5799 28.6569 40.8511C28.4518 41.1222 28.1892 41.3444 27.8879 41.5018C27.5866 41.6592 27.2542 41.7478 26.9146 41.7612H21.0611C20.7215 41.7477 20.3891 41.659 20.0878 41.5016C19.7866 41.3442 19.524 41.122 19.319 40.8509C19.114 40.5798 18.9716 40.2666 18.9021 39.9339C18.8327 39.6012 18.8379 39.2572 18.9173 38.9267C17.4959 38.9279 4.43311 38.9265 3.43457 38.9224ZM20.4172 38.9268C20.4063 39.4456 20.3228 40.2493 21.0611 40.2612H26.9146C27.6491 40.2511 27.5717 39.4441 27.5584 38.9267L20.4172 38.9268ZM37.0608 37.4224H41.6963V18.7705C41.6957 18.3146 41.5144 17.8775 41.192 17.5551C40.8696 17.2327 40.4325 17.0513 39.9766 17.0508H31.5889C31.7531 17.3635 31.6394 21.2704 31.6709 21.6973C31.669 21.8341 31.63 21.9679 31.558 22.0843C31.486 22.2007 31.3838 22.2954 31.2622 22.3582C31.1406 22.4211 31.0042 22.4498 30.8676 22.4412C30.731 22.4326 30.5993 22.3871 30.4866 22.3095L28.5984 20.9678C28.3357 21.3211 27.9628 21.5767 27.5386 21.6943L26.7812 23.4433C26.1526 24.9707 24.082 24.3716 22.8043 24.4834C21.341 24.562 20.9474 22.708 20.4613 21.6943C20.0365 21.5775 19.6631 21.3217 19.4008 20.9677L17.5126 22.3095C17.3998 22.3871 17.2681 22.4327 17.1315 22.4413C16.9949 22.4498 16.8585 22.4212 16.7369 22.3583C16.6153 22.2954 16.5131 22.2007 16.4411 22.0843C16.3691 21.9679 16.3301 21.8341 16.3283 21.6972C16.3602 21.2732 16.2438 17.3589 16.4132 17.0508H8.02252C7.56659 17.0513 7.1295 17.2327 6.80711 17.5551C6.48472 17.8775 6.30336 18.3145 6.3028 18.7705V37.4224H10.9463C10.476 36.7924 10.21 36.0336 10.1841 35.2479C10.1582 34.4622 10.3736 33.6875 10.8013 33.0279C11.2291 32.3684 11.8487 31.8557 12.5766 31.559C13.3045 31.2622 14.1059 31.1956 14.8729 31.3682C14.9922 30.7924 15.2389 30.2507 15.595 29.7828C15.9511 29.3149 16.4075 28.9328 16.9307 28.6644C17.4539 28.396 18.0305 28.2483 18.6183 28.232C19.206 28.2157 19.79 28.3313 20.3272 28.5703C21.128 24.985 26.8704 24.9841 27.6727 28.5703C28.2107 28.3308 28.7956 28.2151 29.3842 28.2317C29.9729 28.2483 30.5503 28.3969 31.0739 28.6664C31.5975 28.9359 32.0539 29.3195 32.4095 29.7889C32.7651 30.2583 33.0108 30.8015 33.1285 31.3785C33.8949 31.2037 34.6965 31.2681 35.4251 31.5632C36.1536 31.8583 36.7742 32.3699 37.2029 33.0287C37.6316 33.6876 37.8478 34.4622 37.8224 35.2479C37.797 36.0335 37.5312 36.7925 37.0608 37.4224ZM14.0438 32.7715C13.7381 32.767 13.4345 32.8227 13.1505 32.9356C12.8664 33.0485 12.6073 33.2163 12.3882 33.4294C12.169 33.6425 11.994 33.8967 11.8731 34.1775C11.7523 34.4583 11.688 34.7602 11.6839 35.0658C11.6798 35.3715 11.736 35.675 11.8493 35.9589C11.9626 36.2428 12.1308 36.5016 12.3442 36.7205C12.5576 36.9393 12.8121 37.114 13.093 37.2344C13.374 37.3549 13.6759 37.4187 13.9816 37.4224H34.0184C34.6323 37.4169 35.2192 37.1688 35.651 36.7323C36.0827 36.2958 36.3244 35.7062 36.3231 35.0922C36.3219 34.4783 36.0778 33.8897 35.6443 33.4549C35.2108 33.0202 34.6229 32.7745 34.0089 32.7715C33.2769 32.6448 32.6412 33.5535 31.9515 33.1276C31.8304 33.0451 31.736 32.9291 31.6799 32.7938C31.6238 32.6585 31.6085 32.5097 31.6358 32.3657C31.7101 31.8725 31.6231 31.3684 31.3876 30.9286C31.1522 30.4888 30.7809 30.1369 30.3292 29.9253C29.8775 29.7136 29.3695 29.6536 28.8809 29.7542C28.3923 29.8547 27.9492 30.1105 27.6178 30.4833C27.5161 30.6071 27.3775 30.695 27.2221 30.7343C27.0668 30.7736 26.903 30.7621 26.7547 30.7015C26.6064 30.6409 26.4814 30.5344 26.398 30.3976C26.3146 30.2608 26.2772 30.1009 26.2913 29.9414C26.3588 29.4944 26.2937 29.0375 26.1039 28.6272C25.9141 28.217 25.608 27.8715 25.2237 27.6336C24.8393 27.3957 24.3936 27.2759 23.9417 27.289C23.4899 27.3021 23.0518 27.4476 22.6819 27.7074C22.3163 27.9411 22.0285 28.2783 21.8551 28.6762C21.6818 29.074 21.6308 29.5144 21.7086 29.9414C21.7226 30.1009 21.6853 30.2608 21.6019 30.3976C21.5185 30.5344 21.3935 30.6409 21.2452 30.7015C21.0969 30.7621 20.9331 30.7736 20.7778 30.7343C20.6225 30.6951 20.4838 30.6071 20.3821 30.4834C20.0481 30.1172 19.6056 29.8674 19.1195 29.7706C18.6334 29.6738 18.129 29.735 17.6801 29.9453C17.2313 30.1555 16.8614 30.5039 16.6246 30.9394C16.3878 31.3748 16.2965 31.8746 16.3641 32.3657C16.3919 32.5115 16.3758 32.6623 16.3178 32.799C16.2597 32.9357 16.1624 33.052 16.0381 33.1333C15.3722 33.5536 14.7207 32.6331 14.0438 32.7715ZM22.1268 21.7646C22.2862 22.0372 22.5653 23.0559 22.8042 22.9834H25.1956C25.4371 23.0548 25.7124 22.0393 25.8731 21.7646H22.1268ZM21.6918 8.63521C20.2297 11.8104 20.5186 16.3537 20.5112 19.793C20.511 19.8548 20.5231 19.9161 20.5467 19.9732C20.5704 20.0304 20.6052 20.0822 20.6491 20.1258C20.6929 20.1694 20.745 20.2039 20.8023 20.2272C20.8596 20.2505 20.9209 20.2622 20.9828 20.2617H27.0173C27.0791 20.2621 27.1403 20.2503 27.1975 20.227C27.2548 20.2036 27.3068 20.1691 27.3506 20.1256C27.3944 20.082 27.4291 20.0301 27.4527 19.973C27.4764 19.9159 27.4884 19.8547 27.4883 19.7929C27.4786 16.3429 27.7683 11.8242 26.3054 8.63521C25.5804 8.96255 24.794 9.13184 23.9986 9.13185C23.2031 9.13186 22.4168 8.96253 21.6918 8.63521ZM28.9881 19.4062L30.171 20.2456V17.666C30.1601 17.5154 30.113 17.3696 30.0337 17.2411C29.9544 17.1125 29.8452 17.005 29.7154 16.9277L29.7132 16.9262L29.7117 16.9247L29.7102 16.9232C29.7172 16.9367 29.0031 16.3607 28.9881 16.3505L28.9881 19.4062ZM17.8809 17.3921C17.7806 17.3924 17.8453 20.1283 17.8282 20.2456L19.0111 19.4062V16.3506C18.588 16.7396 18.1201 16.9254 17.8809 17.3921ZM22.3084 7.26709C22.8395 7.50702 23.4155 7.63124 23.9983 7.6315C24.5811 7.63175 25.1572 7.50805 25.6885 7.26859C25.211 6.32564 24.6453 5.43004 23.9988 4.59379C23.3522 5.42951 22.7862 6.32461 22.3084 7.26709ZM24.0011 15.2754C23.7134 15.2832 23.4271 15.2324 23.1597 15.1261C22.8923 15.0197 22.6493 14.8601 22.4455 14.6569C22.2418 14.4537 22.0815 14.2111 21.9744 13.944C21.8674 13.6768 21.8158 13.3907 21.8228 13.103C21.8405 12.5371 22.0777 12.0002 22.4843 11.6061C22.8908 11.212 23.4348 10.9916 24.0011 10.9916C24.5673 10.9916 25.1113 11.212 25.5179 11.6061C25.9244 12.0002 26.1616 12.5371 26.1793 13.103C26.1858 13.3906 26.1338 13.6764 26.0265 13.9433C25.9193 14.2102 25.759 14.4525 25.5553 14.6556C25.3517 14.8587 25.1089 15.0184 24.8418 15.1249C24.5746 15.2314 24.2886 15.2826 24.0011 15.2754ZM23.3228 13.1162C23.3246 13.2961 23.3977 13.4679 23.5261 13.5939C23.6546 13.7198 23.8278 13.7896 24.0076 13.7879C24.1875 13.7861 24.3593 13.713 24.4853 13.5846C24.6113 13.4561 24.681 13.2829 24.6793 13.1031C24.6776 12.9232 24.6044 12.7514 24.476 12.6254C24.3476 12.4994 24.1744 12.4297 23.9945 12.4314C23.8146 12.4331 23.6428 12.5063 23.5168 12.6347C23.3909 12.7631 23.3211 12.9363 23.3228 13.1162Z" fill="#2BB9F3"/>
</svg>
